G04 #@! TF.GenerationSoftware,KiCad,Pcbnew,5.1.5+dfsg1-2build2*
G04 #@! TF.CreationDate,2022-01-08T21:25:08+01:00*
G04 #@! TF.ProjectId,wifi-gb-cart,77696669-2d67-4622-9d63-6172742e6b69,rev?*
G04 #@! TF.SameCoordinates,Original*
G04 #@! TF.FileFunction,Soldermask,Bot*
G04 #@! TF.FilePolarity,Negative*
%FSLAX46Y46*%
G04 Gerber Fmt 4.6, Leading zero omitted, Abs format (unit mm)*
G04 Created by KiCad (PCBNEW 5.1.5+dfsg1-2build2) date 2022-01-08 21:25:08*
%MOMM*%
%LPD*%
G04 APERTURE LIST*
%ADD10C,0.100000*%
G04 APERTURE END LIST*
D10*
G36*
X154070787Y-123190462D02*
G01*
X154070790Y-123190463D01*
X154070789Y-123190463D01*
X154717029Y-123458144D01*
X155298631Y-123846758D01*
X155793242Y-124341369D01*
X156181856Y-124922971D01*
X156181856Y-124922972D01*
X156449538Y-125569213D01*
X156586000Y-126255256D01*
X156586000Y-126954744D01*
X156449538Y-127640787D01*
X156449537Y-127640789D01*
X156181856Y-128287029D01*
X155793242Y-128868631D01*
X155298631Y-129363242D01*
X154717029Y-129751856D01*
X154260068Y-129941135D01*
X154070787Y-130019538D01*
X153384744Y-130156000D01*
X152685256Y-130156000D01*
X151999213Y-130019538D01*
X151809932Y-129941135D01*
X151352971Y-129751856D01*
X150771369Y-129363242D01*
X150276758Y-128868631D01*
X149888144Y-128287029D01*
X149620463Y-127640789D01*
X149620462Y-127640787D01*
X149484000Y-126954744D01*
X149484000Y-126255256D01*
X149620462Y-125569213D01*
X149888144Y-124922972D01*
X149888144Y-124922971D01*
X150276758Y-124341369D01*
X150771369Y-123846758D01*
X151352971Y-123458144D01*
X151999211Y-123190463D01*
X151999210Y-123190463D01*
X151999213Y-123190462D01*
X152685256Y-123054000D01*
X153384744Y-123054000D01*
X154070787Y-123190462D01*
G37*
G36*
X132885000Y-118915000D02*
G01*
X131783000Y-118915000D01*
X131783000Y-117813000D01*
X132885000Y-117813000D01*
X132885000Y-118915000D01*
G37*
G36*
X132885000Y-116629000D02*
G01*
X131783000Y-116629000D01*
X131783000Y-115527000D01*
X132885000Y-115527000D01*
X132885000Y-116629000D01*
G37*
G36*
X177716000Y-89070000D02*
G01*
X176614000Y-89070000D01*
X176614000Y-87968000D01*
X177716000Y-87968000D01*
X177716000Y-89070000D01*
G37*
G36*
X177716000Y-86530000D02*
G01*
X176614000Y-86530000D01*
X176614000Y-85428000D01*
X177716000Y-85428000D01*
X177716000Y-86530000D01*
G37*
M02*
