G04 #@! TF.GenerationSoftware,KiCad,Pcbnew,5.1.5+dfsg1-2build2*
G04 #@! TF.CreationDate,2022-01-08T21:25:08+01:00*
G04 #@! TF.ProjectId,wifi-gb-cart,77696669-2d67-4622-9d63-6172742e6b69,rev?*
G04 #@! TF.SameCoordinates,Original*
G04 #@! TF.FileFunction,Legend,Top*
G04 #@! TF.FilePolarity,Positive*
%FSLAX46Y46*%
G04 Gerber Fmt 4.6, Leading zero omitted, Abs format (unit mm)*
G04 Created by KiCad (PCBNEW 5.1.5+dfsg1-2build2) date 2022-01-08 21:25:08*
%MOMM*%
%LPD*%
G04 APERTURE LIST*
%ADD10C,0.120000*%
%ADD11C,0.150000*%
G04 APERTURE END LIST*
D10*
X175260000Y-131445000D02*
X130175000Y-131445000D01*
X175260000Y-133985000D02*
X175260000Y-131445000D01*
X130175000Y-133985000D02*
X175260000Y-133985000D01*
X130175000Y-131445000D02*
X130175000Y-133985000D01*
D11*
X130811542Y-119201961D02*
X130859161Y-119154342D01*
X130906780Y-119201961D01*
X130859161Y-119249580D01*
X130811542Y-119201961D01*
X130906780Y-119201961D01*
X130525828Y-119201961D02*
X129954400Y-119249580D01*
X129906780Y-119201961D01*
X129954400Y-119154342D01*
X130525828Y-119201961D01*
X129906780Y-119201961D01*
X129906780Y-117487676D02*
X129906780Y-117963866D01*
X130382971Y-118011485D01*
X130335352Y-117963866D01*
X130287733Y-117868628D01*
X130287733Y-117630533D01*
X130335352Y-117535295D01*
X130382971Y-117487676D01*
X130478209Y-117440057D01*
X130716304Y-117440057D01*
X130811542Y-117487676D01*
X130859161Y-117535295D01*
X130906780Y-117630533D01*
X130906780Y-117868628D01*
X130859161Y-117963866D01*
X130811542Y-118011485D01*
X129906780Y-117154342D02*
X130906780Y-116821009D01*
X129906780Y-116487676D01*
X130811542Y-115392438D02*
X130859161Y-115344819D01*
X130906780Y-115392438D01*
X130859161Y-115440057D01*
X130811542Y-115392438D01*
X130906780Y-115392438D01*
X130525828Y-115392438D02*
X129954400Y-115440057D01*
X129906780Y-115392438D01*
X129954400Y-115344819D01*
X130525828Y-115392438D01*
X129906780Y-115392438D01*
X130681000Y-132309428D02*
X131176238Y-132309428D01*
X130866714Y-131876095D02*
X130866714Y-132990380D01*
X130928619Y-133114190D01*
X131052428Y-133176095D01*
X131176238Y-133176095D01*
X131609571Y-133176095D02*
X131609571Y-131876095D01*
X132166714Y-133176095D02*
X132166714Y-132495142D01*
X132104809Y-132371333D01*
X131981000Y-132309428D01*
X131795285Y-132309428D01*
X131671476Y-132371333D01*
X131609571Y-132433238D01*
X133281000Y-133114190D02*
X133157190Y-133176095D01*
X132909571Y-133176095D01*
X132785761Y-133114190D01*
X132723857Y-132990380D01*
X132723857Y-132495142D01*
X132785761Y-132371333D01*
X132909571Y-132309428D01*
X133157190Y-132309428D01*
X133281000Y-132371333D01*
X133342904Y-132495142D01*
X133342904Y-132618952D01*
X132723857Y-132742761D01*
X133900047Y-133176095D02*
X133900047Y-132309428D01*
X133900047Y-132557047D02*
X133961952Y-132433238D01*
X134023857Y-132371333D01*
X134147666Y-132309428D01*
X134271476Y-132309428D01*
X135200047Y-133114190D02*
X135076238Y-133176095D01*
X134828619Y-133176095D01*
X134704809Y-133114190D01*
X134642904Y-132990380D01*
X134642904Y-132495142D01*
X134704809Y-132371333D01*
X134828619Y-132309428D01*
X135076238Y-132309428D01*
X135200047Y-132371333D01*
X135261952Y-132495142D01*
X135261952Y-132618952D01*
X134642904Y-132742761D01*
X135819095Y-133052285D02*
X135881000Y-133114190D01*
X135819095Y-133176095D01*
X135757190Y-133114190D01*
X135819095Y-133052285D01*
X135819095Y-133176095D01*
X136623857Y-133176095D02*
X136500047Y-133114190D01*
X136438142Y-133052285D01*
X136376238Y-132928476D01*
X136376238Y-132557047D01*
X136438142Y-132433238D01*
X136500047Y-132371333D01*
X136623857Y-132309428D01*
X136809571Y-132309428D01*
X136933380Y-132371333D01*
X136995285Y-132433238D01*
X137057190Y-132557047D01*
X137057190Y-132928476D01*
X136995285Y-133052285D01*
X136933380Y-133114190D01*
X136809571Y-133176095D01*
X136623857Y-133176095D01*
X138171476Y-132309428D02*
X138171476Y-133176095D01*
X137614333Y-132309428D02*
X137614333Y-132990380D01*
X137676238Y-133114190D01*
X137800047Y-133176095D01*
X137985761Y-133176095D01*
X138109571Y-133114190D01*
X138171476Y-133052285D01*
X139347666Y-132309428D02*
X139347666Y-133361809D01*
X139285761Y-133485619D01*
X139223857Y-133547523D01*
X139100047Y-133609428D01*
X138914333Y-133609428D01*
X138790523Y-133547523D01*
X139347666Y-133114190D02*
X139223857Y-133176095D01*
X138976238Y-133176095D01*
X138852428Y-133114190D01*
X138790523Y-133052285D01*
X138728619Y-132928476D01*
X138728619Y-132557047D01*
X138790523Y-132433238D01*
X138852428Y-132371333D01*
X138976238Y-132309428D01*
X139223857Y-132309428D01*
X139347666Y-132371333D01*
X139966714Y-133176095D02*
X139966714Y-131876095D01*
X140523857Y-133176095D02*
X140523857Y-132495142D01*
X140461952Y-132371333D01*
X140338142Y-132309428D01*
X140152428Y-132309428D01*
X140028619Y-132371333D01*
X139966714Y-132433238D01*
X140957190Y-132309428D02*
X141452428Y-132309428D01*
X141142904Y-131876095D02*
X141142904Y-132990380D01*
X141204809Y-133114190D01*
X141328619Y-133176095D01*
X141452428Y-133176095D01*
X142442904Y-133176095D02*
X142442904Y-132495142D01*
X142381000Y-132371333D01*
X142257190Y-132309428D01*
X142009571Y-132309428D01*
X141885761Y-132371333D01*
X142442904Y-133114190D02*
X142319095Y-133176095D01*
X142009571Y-133176095D01*
X141885761Y-133114190D01*
X141823857Y-132990380D01*
X141823857Y-132866571D01*
X141885761Y-132742761D01*
X142009571Y-132680857D01*
X142319095Y-132680857D01*
X142442904Y-132618952D01*
X143061952Y-133052285D02*
X143123857Y-133114190D01*
X143061952Y-133176095D01*
X143000047Y-133114190D01*
X143061952Y-133052285D01*
X143061952Y-133176095D01*
X143681000Y-133176095D02*
X143681000Y-131876095D01*
X143681000Y-132371333D02*
X143804809Y-132309428D01*
X144052428Y-132309428D01*
X144176238Y-132371333D01*
X144238142Y-132433238D01*
X144300047Y-132557047D01*
X144300047Y-132928476D01*
X144238142Y-133052285D01*
X144176238Y-133114190D01*
X144052428Y-133176095D01*
X143804809Y-133176095D01*
X143681000Y-133114190D01*
X145352428Y-133114190D02*
X145228619Y-133176095D01*
X144981000Y-133176095D01*
X144857190Y-133114190D01*
X144795285Y-132990380D01*
X144795285Y-132495142D01*
X144857190Y-132371333D01*
X144981000Y-132309428D01*
X145228619Y-132309428D01*
X145352428Y-132371333D01*
X145414333Y-132495142D01*
X145414333Y-132618952D01*
X144795285Y-132742761D01*
X146900047Y-131814190D02*
X145785761Y-133485619D01*
X147890523Y-133176095D02*
X147890523Y-132495142D01*
X147828619Y-132371333D01*
X147704809Y-132309428D01*
X147457190Y-132309428D01*
X147333380Y-132371333D01*
X147890523Y-133114190D02*
X147766714Y-133176095D01*
X147457190Y-133176095D01*
X147333380Y-133114190D01*
X147271476Y-132990380D01*
X147271476Y-132866571D01*
X147333380Y-132742761D01*
X147457190Y-132680857D01*
X147766714Y-132680857D01*
X147890523Y-132618952D01*
X149438142Y-131814190D02*
X148323857Y-133485619D01*
X149747666Y-132309428D02*
X149995285Y-133176095D01*
X150242904Y-132557047D01*
X150490523Y-133176095D01*
X150738142Y-132309428D01*
X151233380Y-133176095D02*
X151233380Y-132309428D01*
X151233380Y-131876095D02*
X151171476Y-131938000D01*
X151233380Y-131999904D01*
X151295285Y-131938000D01*
X151233380Y-131876095D01*
X151233380Y-131999904D01*
X151666714Y-132309428D02*
X152161952Y-132309428D01*
X151852428Y-133176095D02*
X151852428Y-132061809D01*
X151914333Y-131938000D01*
X152038142Y-131876095D01*
X152161952Y-131876095D01*
X152595285Y-133176095D02*
X152595285Y-132309428D01*
X152595285Y-131876095D02*
X152533380Y-131938000D01*
X152595285Y-131999904D01*
X152657190Y-131938000D01*
X152595285Y-131876095D01*
X152595285Y-131999904D01*
X153214333Y-132680857D02*
X154204809Y-132680857D01*
X155381000Y-132309428D02*
X155381000Y-133361809D01*
X155319095Y-133485619D01*
X155257190Y-133547523D01*
X155133380Y-133609428D01*
X154947666Y-133609428D01*
X154823857Y-133547523D01*
X155381000Y-133114190D02*
X155257190Y-133176095D01*
X155009571Y-133176095D01*
X154885761Y-133114190D01*
X154823857Y-133052285D01*
X154761952Y-132928476D01*
X154761952Y-132557047D01*
X154823857Y-132433238D01*
X154885761Y-132371333D01*
X155009571Y-132309428D01*
X155257190Y-132309428D01*
X155381000Y-132371333D01*
X156557190Y-133176095D02*
X156557190Y-132495142D01*
X156495285Y-132371333D01*
X156371476Y-132309428D01*
X156123857Y-132309428D01*
X156000047Y-132371333D01*
X156557190Y-133114190D02*
X156433380Y-133176095D01*
X156123857Y-133176095D01*
X156000047Y-133114190D01*
X155938142Y-132990380D01*
X155938142Y-132866571D01*
X156000047Y-132742761D01*
X156123857Y-132680857D01*
X156433380Y-132680857D01*
X156557190Y-132618952D01*
X157176238Y-133176095D02*
X157176238Y-132309428D01*
X157176238Y-132433238D02*
X157238142Y-132371333D01*
X157361952Y-132309428D01*
X157547666Y-132309428D01*
X157671476Y-132371333D01*
X157733380Y-132495142D01*
X157733380Y-133176095D01*
X157733380Y-132495142D02*
X157795285Y-132371333D01*
X157919095Y-132309428D01*
X158104809Y-132309428D01*
X158228619Y-132371333D01*
X158290523Y-132495142D01*
X158290523Y-133176095D01*
X159404809Y-133114190D02*
X159281000Y-133176095D01*
X159033380Y-133176095D01*
X158909571Y-133114190D01*
X158847666Y-132990380D01*
X158847666Y-132495142D01*
X158909571Y-132371333D01*
X159033380Y-132309428D01*
X159281000Y-132309428D01*
X159404809Y-132371333D01*
X159466714Y-132495142D01*
X159466714Y-132618952D01*
X158847666Y-132742761D01*
X160023857Y-132680857D02*
X161014333Y-132680857D01*
X161633380Y-133176095D02*
X161633380Y-131876095D01*
X161633380Y-132371333D02*
X161757190Y-132309428D01*
X162004809Y-132309428D01*
X162128619Y-132371333D01*
X162190523Y-132433238D01*
X162252428Y-132557047D01*
X162252428Y-132928476D01*
X162190523Y-133052285D01*
X162128619Y-133114190D01*
X162004809Y-133176095D01*
X161757190Y-133176095D01*
X161633380Y-133114190D01*
X162995285Y-133176095D02*
X162871476Y-133114190D01*
X162809571Y-133052285D01*
X162747666Y-132928476D01*
X162747666Y-132557047D01*
X162809571Y-132433238D01*
X162871476Y-132371333D01*
X162995285Y-132309428D01*
X163181000Y-132309428D01*
X163304809Y-132371333D01*
X163366714Y-132433238D01*
X163428619Y-132557047D01*
X163428619Y-132928476D01*
X163366714Y-133052285D01*
X163304809Y-133114190D01*
X163181000Y-133176095D01*
X162995285Y-133176095D01*
X163861952Y-132309428D02*
X164171476Y-133176095D01*
X164481000Y-132309428D02*
X164171476Y-133176095D01*
X164047666Y-133485619D01*
X163985761Y-133547523D01*
X163861952Y-133609428D01*
X164976238Y-132680857D02*
X165966714Y-132680857D01*
X167142904Y-133114190D02*
X167019095Y-133176095D01*
X166771476Y-133176095D01*
X166647666Y-133114190D01*
X166585761Y-133052285D01*
X166523857Y-132928476D01*
X166523857Y-132557047D01*
X166585761Y-132433238D01*
X166647666Y-132371333D01*
X166771476Y-132309428D01*
X167019095Y-132309428D01*
X167142904Y-132371333D01*
X168257190Y-133176095D02*
X168257190Y-132495142D01*
X168195285Y-132371333D01*
X168071476Y-132309428D01*
X167823857Y-132309428D01*
X167700047Y-132371333D01*
X168257190Y-133114190D02*
X168133380Y-133176095D01*
X167823857Y-133176095D01*
X167700047Y-133114190D01*
X167638142Y-132990380D01*
X167638142Y-132866571D01*
X167700047Y-132742761D01*
X167823857Y-132680857D01*
X168133380Y-132680857D01*
X168257190Y-132618952D01*
X168876238Y-133176095D02*
X168876238Y-132309428D01*
X168876238Y-132557047D02*
X168938142Y-132433238D01*
X169000047Y-132371333D01*
X169123857Y-132309428D01*
X169247666Y-132309428D01*
X169495285Y-132309428D02*
X169990523Y-132309428D01*
X169681000Y-131876095D02*
X169681000Y-132990380D01*
X169742904Y-133114190D01*
X169866714Y-133176095D01*
X169990523Y-133176095D01*
X170423857Y-133176095D02*
X170423857Y-132309428D01*
X170423857Y-132557047D02*
X170485761Y-132433238D01*
X170547666Y-132371333D01*
X170671476Y-132309428D01*
X170795285Y-132309428D01*
X171228619Y-133176095D02*
X171228619Y-132309428D01*
X171228619Y-131876095D02*
X171166714Y-131938000D01*
X171228619Y-131999904D01*
X171290523Y-131938000D01*
X171228619Y-131876095D01*
X171228619Y-131999904D01*
X172404809Y-133176095D02*
X172404809Y-131876095D01*
X172404809Y-133114190D02*
X172281000Y-133176095D01*
X172033380Y-133176095D01*
X171909571Y-133114190D01*
X171847666Y-133052285D01*
X171785761Y-132928476D01*
X171785761Y-132557047D01*
X171847666Y-132433238D01*
X171909571Y-132371333D01*
X172033380Y-132309428D01*
X172281000Y-132309428D01*
X172404809Y-132371333D01*
X173581000Y-132309428D02*
X173581000Y-133361809D01*
X173519095Y-133485619D01*
X173457190Y-133547523D01*
X173333380Y-133609428D01*
X173147666Y-133609428D01*
X173023857Y-133547523D01*
X173581000Y-133114190D02*
X173457190Y-133176095D01*
X173209571Y-133176095D01*
X173085761Y-133114190D01*
X173023857Y-133052285D01*
X172961952Y-132928476D01*
X172961952Y-132557047D01*
X173023857Y-132433238D01*
X173085761Y-132371333D01*
X173209571Y-132309428D01*
X173457190Y-132309428D01*
X173581000Y-132371333D01*
X174695285Y-133114190D02*
X174571476Y-133176095D01*
X174323857Y-133176095D01*
X174200047Y-133114190D01*
X174138142Y-132990380D01*
X174138142Y-132495142D01*
X174200047Y-132371333D01*
X174323857Y-132309428D01*
X174571476Y-132309428D01*
X174695285Y-132371333D01*
X174757190Y-132495142D01*
X174757190Y-132618952D01*
X174138142Y-132742761D01*
D10*
X159385000Y-111760000D02*
X159385000Y-91440000D01*
X177165000Y-111760000D02*
X159385000Y-111760000D01*
X177165000Y-91440000D02*
X177165000Y-111760000D01*
X159385000Y-91440000D02*
X177165000Y-91440000D01*
X172645000Y-94505000D02*
X174100000Y-94505000D01*
X174100000Y-94505000D02*
X174100000Y-95960000D01*
X163905000Y-108695000D02*
X162450000Y-108695000D01*
X162450000Y-108695000D02*
X162450000Y-107240000D01*
X172645000Y-108695000D02*
X174100000Y-108695000D01*
X174100000Y-108695000D02*
X174100000Y-107240000D01*
X163905000Y-94505000D02*
X163622218Y-94505000D01*
X163622218Y-94505000D02*
X162450000Y-95677218D01*
X162450000Y-95677218D02*
X162450000Y-95960000D01*
D11*
X129545000Y-91905000D02*
X129545000Y-89705000D01*
X133345000Y-91905000D02*
X129545000Y-91905000D01*
X133345000Y-89705000D02*
X133345000Y-91905000D01*
X129545000Y-89705000D02*
X133345000Y-89705000D01*
D10*
X142000000Y-107220000D02*
X142000000Y-111605000D01*
X145020000Y-107220000D02*
X142000000Y-107220000D01*
X145020000Y-111605000D02*
X145020000Y-107220000D01*
X159491000Y-122714936D02*
X159491000Y-123919064D01*
X161311000Y-122714936D02*
X161311000Y-123919064D01*
X161311000Y-129126064D02*
X161311000Y-127921936D01*
X159491000Y-129126064D02*
X159491000Y-127921936D01*
X137858800Y-94488600D02*
X129623800Y-94488600D01*
X137858800Y-99008600D02*
X137858800Y-94488600D01*
X129623800Y-99008600D02*
X137858800Y-99008600D01*
X139425000Y-109252936D02*
X139425000Y-110457064D01*
X141245000Y-109252936D02*
X141245000Y-110457064D01*
X132008200Y-84527636D02*
X132008200Y-85731764D01*
X133828200Y-84527636D02*
X133828200Y-85731764D01*
X131310000Y-87375000D02*
X131310000Y-83490000D01*
X129040000Y-87375000D02*
X131310000Y-87375000D01*
X129040000Y-83490000D02*
X129040000Y-87375000D01*
X133034000Y-116778000D02*
X131634000Y-116778000D01*
X133034000Y-115378000D02*
X133034000Y-116778000D01*
X131634000Y-115378000D02*
X133034000Y-115378000D01*
X131634000Y-116778000D02*
X131634000Y-115378000D01*
X131634000Y-119064000D02*
X131634000Y-117664000D01*
X133034000Y-119064000D02*
X131634000Y-119064000D01*
X133034000Y-117664000D02*
X133034000Y-119064000D01*
X131634000Y-117664000D02*
X133034000Y-117664000D01*
X176465000Y-85279000D02*
X177865000Y-85279000D01*
X176465000Y-86679000D02*
X176465000Y-85279000D01*
X177865000Y-86679000D02*
X176465000Y-86679000D01*
X177865000Y-85279000D02*
X177865000Y-86679000D01*
X177865000Y-89219000D02*
X176465000Y-89219000D01*
X177865000Y-87819000D02*
X177865000Y-89219000D01*
X176465000Y-87819000D02*
X177865000Y-87819000D01*
X176465000Y-89219000D02*
X176465000Y-87819000D01*
X130842936Y-111485000D02*
X132047064Y-111485000D01*
X130842936Y-113305000D02*
X132047064Y-113305000D01*
X130842936Y-110130000D02*
X132047064Y-110130000D01*
X130842936Y-108310000D02*
X132047064Y-108310000D01*
X136340436Y-84730000D02*
X137544564Y-84730000D01*
X136340436Y-82910000D02*
X137544564Y-82910000D01*
X137558864Y-90622800D02*
X136354736Y-90622800D01*
X137558864Y-88802800D02*
X136354736Y-88802800D01*
X136354736Y-91723800D02*
X137558864Y-91723800D01*
X136354736Y-93543800D02*
X137558864Y-93543800D01*
X157501000Y-110457064D02*
X157501000Y-109252936D01*
X155681000Y-110457064D02*
X155681000Y-109252936D01*
X136329336Y-87651000D02*
X137533464Y-87651000D01*
X136329336Y-85831000D02*
X137533464Y-85831000D01*
X173715000Y-88867064D02*
X173715000Y-87662936D01*
X175535000Y-88867064D02*
X175535000Y-87662936D01*
D11*
X159390000Y-82720000D02*
X163190000Y-82720000D01*
X163190000Y-82720000D02*
X163190000Y-84920000D01*
X163190000Y-84920000D02*
X159390000Y-84920000D01*
X159390000Y-84920000D02*
X159390000Y-82720000D01*
X163835000Y-82720000D02*
X167635000Y-82720000D01*
X167635000Y-82720000D02*
X167635000Y-84920000D01*
X167635000Y-84920000D02*
X163835000Y-84920000D01*
X163835000Y-84920000D02*
X163835000Y-82720000D01*
X159390000Y-87165000D02*
X163190000Y-87165000D01*
X163190000Y-87165000D02*
X163190000Y-89365000D01*
X163190000Y-89365000D02*
X159390000Y-89365000D01*
X159390000Y-89365000D02*
X159390000Y-87165000D01*
X163835000Y-89365000D02*
X163835000Y-87165000D01*
X167635000Y-89365000D02*
X163835000Y-89365000D01*
X167635000Y-87165000D02*
X167635000Y-89365000D01*
X163835000Y-87165000D02*
X167635000Y-87165000D01*
X168280000Y-82720000D02*
X172080000Y-82720000D01*
X172080000Y-82720000D02*
X172080000Y-84920000D01*
X172080000Y-84920000D02*
X168280000Y-84920000D01*
X168280000Y-84920000D02*
X168280000Y-82720000D01*
X168280000Y-87165000D02*
X172080000Y-87165000D01*
X172080000Y-87165000D02*
X172080000Y-89365000D01*
X172080000Y-89365000D02*
X168280000Y-89365000D01*
X168280000Y-89365000D02*
X168280000Y-87165000D01*
D10*
X134620000Y-130800000D02*
X138070000Y-130800000D01*
X134620000Y-130800000D02*
X132670000Y-130800000D01*
X134620000Y-121930000D02*
X136570000Y-121930000D01*
X134620000Y-121930000D02*
X132670000Y-121930000D01*
X145024000Y-117094000D02*
X145024000Y-115144000D01*
X145024000Y-117094000D02*
X145024000Y-119044000D01*
X136154000Y-117094000D02*
X136154000Y-115144000D01*
X136154000Y-117094000D02*
X136154000Y-120544000D01*
X139011500Y-127215900D02*
X139011500Y-130665900D01*
X139011500Y-127215900D02*
X139011500Y-125265900D01*
X147881500Y-127215900D02*
X147881500Y-129165900D01*
X147881500Y-127215900D02*
X147881500Y-125265900D01*
X160391000Y-116586000D02*
X160391000Y-114636000D01*
X160391000Y-116586000D02*
X160391000Y-118536000D01*
X151521000Y-116586000D02*
X151521000Y-114636000D01*
X151521000Y-116586000D02*
X151521000Y-120036000D01*
X141105000Y-81225000D02*
X157345000Y-81225000D01*
X157345000Y-81225000D02*
X157345000Y-88845000D01*
X157345000Y-104845000D02*
X157345000Y-105465000D01*
X157345000Y-105465000D02*
X155225000Y-105465000D01*
X143225000Y-105465000D02*
X141105000Y-105465000D01*
X141105000Y-105465000D02*
X141105000Y-104845000D01*
X141105000Y-88845000D02*
X141105000Y-81225000D01*
X141105000Y-88845000D02*
X140495000Y-88845000D01*
X135260000Y-106915000D02*
X135260000Y-105655000D01*
X135260000Y-100095000D02*
X135260000Y-101355000D01*
X131500000Y-106915000D02*
X135260000Y-106915000D01*
X129250000Y-100095000D02*
X135260000Y-100095000D01*
X146294200Y-108828000D02*
X146294200Y-111278000D01*
X149514200Y-110628000D02*
X149514200Y-108828000D01*
X153756000Y-110628000D02*
X153756000Y-108828000D01*
X150536000Y-108828000D02*
X150536000Y-111278000D01*
X177355000Y-125095000D02*
X177355000Y-121235000D01*
X177355000Y-121235000D02*
X177090000Y-121235000D01*
X177355000Y-125095000D02*
X177355000Y-128955000D01*
X177355000Y-128955000D02*
X177090000Y-128955000D01*
X161735000Y-125095000D02*
X161735000Y-121235000D01*
X161735000Y-121235000D02*
X162000000Y-121235000D01*
X161735000Y-125095000D02*
X161735000Y-128955000D01*
X161735000Y-128955000D02*
X162000000Y-128955000D01*
X162000000Y-128955000D02*
X162000000Y-130770000D01*
D11*
X167436895Y-112075980D02*
X167436895Y-112885504D01*
X167484514Y-112980742D01*
X167532133Y-113028361D01*
X167627371Y-113075980D01*
X167817847Y-113075980D01*
X167913085Y-113028361D01*
X167960704Y-112980742D01*
X168008323Y-112885504D01*
X168008323Y-112075980D01*
X168960704Y-112075980D02*
X168484514Y-112075980D01*
X168436895Y-112552171D01*
X168484514Y-112504552D01*
X168579752Y-112456933D01*
X168817847Y-112456933D01*
X168913085Y-112504552D01*
X168960704Y-112552171D01*
X169008323Y-112647409D01*
X169008323Y-112885504D01*
X168960704Y-112980742D01*
X168913085Y-113028361D01*
X168817847Y-113075980D01*
X168579752Y-113075980D01*
X168484514Y-113028361D01*
X168436895Y-112980742D01*
X129778285Y-92984628D02*
X130540190Y-92984628D01*
X130159238Y-93365580D02*
X130159238Y-92603676D01*
X131492571Y-92365580D02*
X131016380Y-92365580D01*
X130968761Y-92841771D01*
X131016380Y-92794152D01*
X131111619Y-92746533D01*
X131349714Y-92746533D01*
X131444952Y-92794152D01*
X131492571Y-92841771D01*
X131540190Y-92937009D01*
X131540190Y-93175104D01*
X131492571Y-93270342D01*
X131444952Y-93317961D01*
X131349714Y-93365580D01*
X131111619Y-93365580D01*
X131016380Y-93317961D01*
X130968761Y-93270342D01*
X131825904Y-92365580D02*
X132159238Y-93365580D01*
X132492571Y-92365580D01*
X146305542Y-112917266D02*
X146353161Y-112964885D01*
X146400780Y-113107742D01*
X146400780Y-113202980D01*
X146353161Y-113345838D01*
X146257923Y-113441076D01*
X146162685Y-113488695D01*
X145972209Y-113536314D01*
X145829352Y-113536314D01*
X145638876Y-113488695D01*
X145543638Y-113441076D01*
X145448400Y-113345838D01*
X145400780Y-113202980D01*
X145400780Y-113107742D01*
X145448400Y-112964885D01*
X145496019Y-112917266D01*
X145400780Y-112583933D02*
X145400780Y-111964885D01*
X145781733Y-112298219D01*
X145781733Y-112155361D01*
X145829352Y-112060123D01*
X145876971Y-112012504D01*
X145972209Y-111964885D01*
X146210304Y-111964885D01*
X146305542Y-112012504D01*
X146353161Y-112060123D01*
X146400780Y-112155361D01*
X146400780Y-112441076D01*
X146353161Y-112536314D01*
X146305542Y-112583933D01*
X158903942Y-123636066D02*
X158951561Y-123683685D01*
X158999180Y-123826542D01*
X158999180Y-123921780D01*
X158951561Y-124064638D01*
X158856323Y-124159876D01*
X158761085Y-124207495D01*
X158570609Y-124255114D01*
X158427752Y-124255114D01*
X158237276Y-124207495D01*
X158142038Y-124159876D01*
X158046800Y-124064638D01*
X157999180Y-123921780D01*
X157999180Y-123826542D01*
X158046800Y-123683685D01*
X158094419Y-123636066D01*
X157999180Y-123302733D02*
X157999180Y-122636066D01*
X158999180Y-123064638D01*
X158938142Y-128690666D02*
X158985761Y-128738285D01*
X159033380Y-128881142D01*
X159033380Y-128976380D01*
X158985761Y-129119238D01*
X158890523Y-129214476D01*
X158795285Y-129262095D01*
X158604809Y-129309714D01*
X158461952Y-129309714D01*
X158271476Y-129262095D01*
X158176238Y-129214476D01*
X158081000Y-129119238D01*
X158033380Y-128976380D01*
X158033380Y-128881142D01*
X158081000Y-128738285D01*
X158128619Y-128690666D01*
X158033380Y-127833523D02*
X158033380Y-128024000D01*
X158081000Y-128119238D01*
X158128619Y-128166857D01*
X158271476Y-128262095D01*
X158461952Y-128309714D01*
X158842904Y-128309714D01*
X158938142Y-128262095D01*
X158985761Y-128214476D01*
X159033380Y-128119238D01*
X159033380Y-127928761D01*
X158985761Y-127833523D01*
X158938142Y-127785904D01*
X158842904Y-127738285D01*
X158604809Y-127738285D01*
X158509571Y-127785904D01*
X158461952Y-127833523D01*
X158414333Y-127928761D01*
X158414333Y-128119238D01*
X158461952Y-128214476D01*
X158509571Y-128262095D01*
X158604809Y-128309714D01*
X138990342Y-97042266D02*
X139037961Y-97089885D01*
X139085580Y-97232742D01*
X139085580Y-97327980D01*
X139037961Y-97470838D01*
X138942723Y-97566076D01*
X138847485Y-97613695D01*
X138657009Y-97661314D01*
X138514152Y-97661314D01*
X138323676Y-97613695D01*
X138228438Y-97566076D01*
X138133200Y-97470838D01*
X138085580Y-97327980D01*
X138085580Y-97232742D01*
X138133200Y-97089885D01*
X138180819Y-97042266D01*
X138085580Y-96137504D02*
X138085580Y-96613695D01*
X138561771Y-96661314D01*
X138514152Y-96613695D01*
X138466533Y-96518457D01*
X138466533Y-96280361D01*
X138514152Y-96185123D01*
X138561771Y-96137504D01*
X138657009Y-96089885D01*
X138895104Y-96089885D01*
X138990342Y-96137504D01*
X139037961Y-96185123D01*
X139085580Y-96280361D01*
X139085580Y-96518457D01*
X139037961Y-96613695D01*
X138990342Y-96661314D01*
X138939542Y-110021666D02*
X138987161Y-110069285D01*
X139034780Y-110212142D01*
X139034780Y-110307380D01*
X138987161Y-110450238D01*
X138891923Y-110545476D01*
X138796685Y-110593095D01*
X138606209Y-110640714D01*
X138463352Y-110640714D01*
X138272876Y-110593095D01*
X138177638Y-110545476D01*
X138082400Y-110450238D01*
X138034780Y-110307380D01*
X138034780Y-110212142D01*
X138082400Y-110069285D01*
X138130019Y-110021666D01*
X138368114Y-109164523D02*
X139034780Y-109164523D01*
X137987161Y-109402619D02*
X138701447Y-109640714D01*
X138701447Y-109021666D01*
X132776933Y-88768180D02*
X132443600Y-88291990D01*
X132205504Y-88768180D02*
X132205504Y-87768180D01*
X132586457Y-87768180D01*
X132681695Y-87815800D01*
X132729314Y-87863419D01*
X132776933Y-87958657D01*
X132776933Y-88101514D01*
X132729314Y-88196752D01*
X132681695Y-88244371D01*
X132586457Y-88291990D01*
X132205504Y-88291990D01*
X133634076Y-87768180D02*
X133443600Y-87768180D01*
X133348361Y-87815800D01*
X133300742Y-87863419D01*
X133205504Y-88006276D01*
X133157885Y-88196752D01*
X133157885Y-88577704D01*
X133205504Y-88672942D01*
X133253123Y-88720561D01*
X133348361Y-88768180D01*
X133538838Y-88768180D01*
X133634076Y-88720561D01*
X133681695Y-88672942D01*
X133729314Y-88577704D01*
X133729314Y-88339609D01*
X133681695Y-88244371D01*
X133634076Y-88196752D01*
X133538838Y-88149133D01*
X133348361Y-88149133D01*
X133253123Y-88196752D01*
X133205504Y-88244371D01*
X133157885Y-88339609D01*
X128807380Y-85828095D02*
X127807380Y-85828095D01*
X127807380Y-85590000D01*
X127855000Y-85447142D01*
X127950238Y-85351904D01*
X128045476Y-85304285D01*
X128235952Y-85256666D01*
X128378809Y-85256666D01*
X128569285Y-85304285D01*
X128664523Y-85351904D01*
X128759761Y-85447142D01*
X128807380Y-85590000D01*
X128807380Y-85828095D01*
X128807380Y-84304285D02*
X128807380Y-84875714D01*
X128807380Y-84590000D02*
X127807380Y-84590000D01*
X127950238Y-84685238D01*
X128045476Y-84780476D01*
X128093095Y-84875714D01*
X129035514Y-114803180D02*
X128702180Y-114326990D01*
X128464085Y-114803180D02*
X128464085Y-113803180D01*
X128845038Y-113803180D01*
X128940276Y-113850800D01*
X128987895Y-113898419D01*
X129035514Y-113993657D01*
X129035514Y-114136514D01*
X128987895Y-114231752D01*
X128940276Y-114279371D01*
X128845038Y-114326990D01*
X128464085Y-114326990D01*
X129654561Y-113803180D02*
X129845038Y-113803180D01*
X129940276Y-113850800D01*
X130035514Y-113946038D01*
X130083133Y-114136514D01*
X130083133Y-114469847D01*
X130035514Y-114660323D01*
X129940276Y-114755561D01*
X129845038Y-114803180D01*
X129654561Y-114803180D01*
X129559323Y-114755561D01*
X129464085Y-114660323D01*
X129416466Y-114469847D01*
X129416466Y-114136514D01*
X129464085Y-113946038D01*
X129559323Y-113850800D01*
X129654561Y-113803180D01*
X130511704Y-114803180D02*
X130511704Y-113803180D01*
X130845038Y-114517466D01*
X131178371Y-113803180D01*
X131178371Y-114803180D01*
X131606942Y-114517466D02*
X132083133Y-114517466D01*
X131511704Y-114803180D02*
X131845038Y-113803180D01*
X132178371Y-114803180D01*
X132511704Y-114803180D02*
X132511704Y-113803180D01*
X132749800Y-113803180D01*
X132892657Y-113850800D01*
X132987895Y-113946038D01*
X133035514Y-114041276D01*
X133083133Y-114231752D01*
X133083133Y-114374609D01*
X133035514Y-114565085D01*
X132987895Y-114660323D01*
X132892657Y-114755561D01*
X132749800Y-114803180D01*
X132511704Y-114803180D01*
X133511704Y-114803180D02*
X133511704Y-113803180D01*
X133749800Y-113803180D01*
X133892657Y-113850800D01*
X133987895Y-113946038D01*
X134035514Y-114041276D01*
X134083133Y-114231752D01*
X134083133Y-114374609D01*
X134035514Y-114565085D01*
X133987895Y-114660323D01*
X133892657Y-114755561D01*
X133749800Y-114803180D01*
X133511704Y-114803180D01*
X135083133Y-114803180D02*
X134749800Y-114326990D01*
X134511704Y-114803180D02*
X134511704Y-113803180D01*
X134892657Y-113803180D01*
X134987895Y-113850800D01*
X135035514Y-113898419D01*
X135083133Y-113993657D01*
X135083133Y-114136514D01*
X135035514Y-114231752D01*
X134987895Y-114279371D01*
X134892657Y-114326990D01*
X134511704Y-114326990D01*
X128833952Y-120299171D02*
X129167285Y-120299171D01*
X129310142Y-120822980D02*
X128833952Y-120822980D01*
X128833952Y-119822980D01*
X129310142Y-119822980D01*
X129691095Y-120775361D02*
X129833952Y-120822980D01*
X130072047Y-120822980D01*
X130167285Y-120775361D01*
X130214904Y-120727742D01*
X130262523Y-120632504D01*
X130262523Y-120537266D01*
X130214904Y-120442028D01*
X130167285Y-120394409D01*
X130072047Y-120346790D01*
X129881571Y-120299171D01*
X129786333Y-120251552D01*
X129738714Y-120203933D01*
X129691095Y-120108695D01*
X129691095Y-120013457D01*
X129738714Y-119918219D01*
X129786333Y-119870600D01*
X129881571Y-119822980D01*
X130119666Y-119822980D01*
X130262523Y-119870600D01*
X130691095Y-120822980D02*
X130691095Y-119822980D01*
X131072047Y-119822980D01*
X131167285Y-119870600D01*
X131214904Y-119918219D01*
X131262523Y-120013457D01*
X131262523Y-120156314D01*
X131214904Y-120251552D01*
X131167285Y-120299171D01*
X131072047Y-120346790D01*
X130691095Y-120346790D01*
X131643476Y-120537266D02*
X132119666Y-120537266D01*
X131548238Y-120822980D02*
X131881571Y-119822980D01*
X132214904Y-120822980D01*
X132548238Y-120822980D02*
X132548238Y-119822980D01*
X132786333Y-119822980D01*
X132929190Y-119870600D01*
X133024428Y-119965838D01*
X133072047Y-120061076D01*
X133119666Y-120251552D01*
X133119666Y-120394409D01*
X133072047Y-120584885D01*
X133024428Y-120680123D01*
X132929190Y-120775361D01*
X132786333Y-120822980D01*
X132548238Y-120822980D01*
X133548238Y-120822980D02*
X133548238Y-119822980D01*
X133786333Y-119822980D01*
X133929190Y-119870600D01*
X134024428Y-119965838D01*
X134072047Y-120061076D01*
X134119666Y-120251552D01*
X134119666Y-120394409D01*
X134072047Y-120584885D01*
X134024428Y-120680123D01*
X133929190Y-120775361D01*
X133786333Y-120822980D01*
X133548238Y-120822980D01*
X135119666Y-120822980D02*
X134786333Y-120346790D01*
X134548238Y-120822980D02*
X134548238Y-119822980D01*
X134929190Y-119822980D01*
X135024428Y-119870600D01*
X135072047Y-119918219D01*
X135119666Y-120013457D01*
X135119666Y-120156314D01*
X135072047Y-120251552D01*
X135024428Y-120299171D01*
X134929190Y-120346790D01*
X134548238Y-120346790D01*
X173071161Y-84205771D02*
X173404495Y-84205771D01*
X173547352Y-84729580D02*
X173071161Y-84729580D01*
X173071161Y-83729580D01*
X173547352Y-83729580D01*
X173928304Y-84681961D02*
X174071161Y-84729580D01*
X174309257Y-84729580D01*
X174404495Y-84681961D01*
X174452114Y-84634342D01*
X174499733Y-84539104D01*
X174499733Y-84443866D01*
X174452114Y-84348628D01*
X174404495Y-84301009D01*
X174309257Y-84253390D01*
X174118780Y-84205771D01*
X174023542Y-84158152D01*
X173975923Y-84110533D01*
X173928304Y-84015295D01*
X173928304Y-83920057D01*
X173975923Y-83824819D01*
X174023542Y-83777200D01*
X174118780Y-83729580D01*
X174356876Y-83729580D01*
X174499733Y-83777200D01*
X174928304Y-84729580D02*
X174928304Y-83729580D01*
X175309257Y-83729580D01*
X175404495Y-83777200D01*
X175452114Y-83824819D01*
X175499733Y-83920057D01*
X175499733Y-84062914D01*
X175452114Y-84158152D01*
X175404495Y-84205771D01*
X175309257Y-84253390D01*
X174928304Y-84253390D01*
X176499733Y-84634342D02*
X176452114Y-84681961D01*
X176309257Y-84729580D01*
X176214019Y-84729580D01*
X176071161Y-84681961D01*
X175975923Y-84586723D01*
X175928304Y-84491485D01*
X175880685Y-84301009D01*
X175880685Y-84158152D01*
X175928304Y-83967676D01*
X175975923Y-83872438D01*
X176071161Y-83777200D01*
X176214019Y-83729580D01*
X176309257Y-83729580D01*
X176452114Y-83777200D01*
X176499733Y-83824819D01*
X177404495Y-84729580D02*
X176928304Y-84729580D01*
X176928304Y-83729580D01*
X177737828Y-84729580D02*
X177737828Y-83729580D01*
X178309257Y-84729580D02*
X177880685Y-84158152D01*
X178309257Y-83729580D02*
X177737828Y-84301009D01*
X177855571Y-94240076D02*
X177855571Y-93906742D01*
X178379380Y-93763885D02*
X178379380Y-94240076D01*
X177379380Y-94240076D01*
X177379380Y-93763885D01*
X178331761Y-93382933D02*
X178379380Y-93240076D01*
X178379380Y-93001980D01*
X178331761Y-92906742D01*
X178284142Y-92859123D01*
X178188904Y-92811504D01*
X178093666Y-92811504D01*
X177998428Y-92859123D01*
X177950809Y-92906742D01*
X177903190Y-93001980D01*
X177855571Y-93192457D01*
X177807952Y-93287695D01*
X177760333Y-93335314D01*
X177665095Y-93382933D01*
X177569857Y-93382933D01*
X177474619Y-93335314D01*
X177427000Y-93287695D01*
X177379380Y-93192457D01*
X177379380Y-92954361D01*
X177427000Y-92811504D01*
X178379380Y-92382933D02*
X177379380Y-92382933D01*
X177379380Y-92001980D01*
X177427000Y-91906742D01*
X177474619Y-91859123D01*
X177569857Y-91811504D01*
X177712714Y-91811504D01*
X177807952Y-91859123D01*
X177855571Y-91906742D01*
X177903190Y-92001980D01*
X177903190Y-92382933D01*
X178379380Y-90811504D02*
X177903190Y-91144838D01*
X178379380Y-91382933D02*
X177379380Y-91382933D01*
X177379380Y-91001980D01*
X177427000Y-90906742D01*
X177474619Y-90859123D01*
X177569857Y-90811504D01*
X177712714Y-90811504D01*
X177807952Y-90859123D01*
X177855571Y-90906742D01*
X177903190Y-91001980D01*
X177903190Y-91382933D01*
X178379380Y-90382933D02*
X177379380Y-90382933D01*
X177379380Y-90144838D01*
X177427000Y-90001980D01*
X177522238Y-89906742D01*
X177617476Y-89859123D01*
X177807952Y-89811504D01*
X177950809Y-89811504D01*
X178141285Y-89859123D01*
X178236523Y-89906742D01*
X178331761Y-90001980D01*
X178379380Y-90144838D01*
X178379380Y-90382933D01*
X152273095Y-120057380D02*
X152273095Y-119057380D01*
X152273095Y-119533571D02*
X152844523Y-119533571D01*
X152844523Y-120057380D02*
X152844523Y-119057380D01*
X153844523Y-120057380D02*
X153273095Y-120057380D01*
X153558809Y-120057380D02*
X153558809Y-119057380D01*
X153463571Y-119200238D01*
X153368333Y-119295476D01*
X153273095Y-119343095D01*
X175982380Y-133778523D02*
X175982380Y-133159476D01*
X176363333Y-133492809D01*
X176363333Y-133349952D01*
X176410952Y-133254714D01*
X176458571Y-133207095D01*
X176553809Y-133159476D01*
X176791904Y-133159476D01*
X176887142Y-133207095D01*
X176934761Y-133254714D01*
X176982380Y-133349952D01*
X176982380Y-133635666D01*
X176934761Y-133730904D01*
X176887142Y-133778523D01*
X176077619Y-132778523D02*
X176030000Y-132730904D01*
X175982380Y-132635666D01*
X175982380Y-132397571D01*
X176030000Y-132302333D01*
X176077619Y-132254714D01*
X176172857Y-132207095D01*
X176268095Y-132207095D01*
X176410952Y-132254714D01*
X176982380Y-132826142D01*
X176982380Y-132207095D01*
X129865380Y-133191285D02*
X129865380Y-133762714D01*
X129865380Y-133477000D02*
X128865380Y-133477000D01*
X129008238Y-133572238D01*
X129103476Y-133667476D01*
X129151095Y-133762714D01*
X135053342Y-109361266D02*
X135100961Y-109408885D01*
X135148580Y-109551742D01*
X135148580Y-109646980D01*
X135100961Y-109789838D01*
X135005723Y-109885076D01*
X134910485Y-109932695D01*
X134720009Y-109980314D01*
X134577152Y-109980314D01*
X134386676Y-109932695D01*
X134291438Y-109885076D01*
X134196200Y-109789838D01*
X134148580Y-109646980D01*
X134148580Y-109551742D01*
X134196200Y-109408885D01*
X134243819Y-109361266D01*
X135148580Y-108408885D02*
X135148580Y-108980314D01*
X135148580Y-108694600D02*
X134148580Y-108694600D01*
X134291438Y-108789838D01*
X134386676Y-108885076D01*
X134434295Y-108980314D01*
X135104142Y-112587066D02*
X135151761Y-112634685D01*
X135199380Y-112777542D01*
X135199380Y-112872780D01*
X135151761Y-113015638D01*
X135056523Y-113110876D01*
X134961285Y-113158495D01*
X134770809Y-113206114D01*
X134627952Y-113206114D01*
X134437476Y-113158495D01*
X134342238Y-113110876D01*
X134247000Y-113015638D01*
X134199380Y-112872780D01*
X134199380Y-112777542D01*
X134247000Y-112634685D01*
X134294619Y-112587066D01*
X134294619Y-112206114D02*
X134247000Y-112158495D01*
X134199380Y-112063257D01*
X134199380Y-111825161D01*
X134247000Y-111729923D01*
X134294619Y-111682304D01*
X134389857Y-111634685D01*
X134485095Y-111634685D01*
X134627952Y-111682304D01*
X135199380Y-112253733D01*
X135199380Y-111634685D01*
X140533380Y-83859666D02*
X140057190Y-84193000D01*
X140533380Y-84431095D02*
X139533380Y-84431095D01*
X139533380Y-84050142D01*
X139581000Y-83954904D01*
X139628619Y-83907285D01*
X139723857Y-83859666D01*
X139866714Y-83859666D01*
X139961952Y-83907285D01*
X140009571Y-83954904D01*
X140057190Y-84050142D01*
X140057190Y-84431095D01*
X140533380Y-82907285D02*
X140533380Y-83478714D01*
X140533380Y-83193000D02*
X139533380Y-83193000D01*
X139676238Y-83288238D01*
X139771476Y-83383476D01*
X139819095Y-83478714D01*
X140355580Y-89930266D02*
X139879390Y-90263600D01*
X140355580Y-90501695D02*
X139355580Y-90501695D01*
X139355580Y-90120742D01*
X139403200Y-90025504D01*
X139450819Y-89977885D01*
X139546057Y-89930266D01*
X139688914Y-89930266D01*
X139784152Y-89977885D01*
X139831771Y-90025504D01*
X139879390Y-90120742D01*
X139879390Y-90501695D01*
X139450819Y-89549314D02*
X139403200Y-89501695D01*
X139355580Y-89406457D01*
X139355580Y-89168361D01*
X139403200Y-89073123D01*
X139450819Y-89025504D01*
X139546057Y-88977885D01*
X139641295Y-88977885D01*
X139784152Y-89025504D01*
X140355580Y-89596933D01*
X140355580Y-88977885D01*
X140355580Y-92800466D02*
X139879390Y-93133800D01*
X140355580Y-93371895D02*
X139355580Y-93371895D01*
X139355580Y-92990942D01*
X139403200Y-92895704D01*
X139450819Y-92848085D01*
X139546057Y-92800466D01*
X139688914Y-92800466D01*
X139784152Y-92848085D01*
X139831771Y-92895704D01*
X139879390Y-92990942D01*
X139879390Y-93371895D01*
X139355580Y-92467133D02*
X139355580Y-91848085D01*
X139736533Y-92181419D01*
X139736533Y-92038561D01*
X139784152Y-91943323D01*
X139831771Y-91895704D01*
X139927009Y-91848085D01*
X140165104Y-91848085D01*
X140260342Y-91895704D01*
X140307961Y-91943323D01*
X140355580Y-92038561D01*
X140355580Y-92324276D01*
X140307961Y-92419514D01*
X140260342Y-92467133D01*
X158922980Y-109767666D02*
X158446790Y-110101000D01*
X158922980Y-110339095D02*
X157922980Y-110339095D01*
X157922980Y-109958142D01*
X157970600Y-109862904D01*
X158018219Y-109815285D01*
X158113457Y-109767666D01*
X158256314Y-109767666D01*
X158351552Y-109815285D01*
X158399171Y-109862904D01*
X158446790Y-109958142D01*
X158446790Y-110339095D01*
X158256314Y-108910523D02*
X158922980Y-108910523D01*
X157875361Y-109148619D02*
X158589647Y-109386714D01*
X158589647Y-108767666D01*
X140533380Y-86882266D02*
X140057190Y-87215600D01*
X140533380Y-87453695D02*
X139533380Y-87453695D01*
X139533380Y-87072742D01*
X139581000Y-86977504D01*
X139628619Y-86929885D01*
X139723857Y-86882266D01*
X139866714Y-86882266D01*
X139961952Y-86929885D01*
X140009571Y-86977504D01*
X140057190Y-87072742D01*
X140057190Y-87453695D01*
X139533380Y-85977504D02*
X139533380Y-86453695D01*
X140009571Y-86501314D01*
X139961952Y-86453695D01*
X139914333Y-86358457D01*
X139914333Y-86120361D01*
X139961952Y-86025123D01*
X140009571Y-85977504D01*
X140104809Y-85929885D01*
X140342904Y-85929885D01*
X140438142Y-85977504D01*
X140485761Y-86025123D01*
X140533380Y-86120361D01*
X140533380Y-86358457D01*
X140485761Y-86453695D01*
X140438142Y-86501314D01*
X176982380Y-90692266D02*
X176506190Y-91025600D01*
X176982380Y-91263695D02*
X175982380Y-91263695D01*
X175982380Y-90882742D01*
X176030000Y-90787504D01*
X176077619Y-90739885D01*
X176172857Y-90692266D01*
X176315714Y-90692266D01*
X176410952Y-90739885D01*
X176458571Y-90787504D01*
X176506190Y-90882742D01*
X176506190Y-91263695D01*
X175982380Y-90358933D02*
X175982380Y-89692266D01*
X176982380Y-90120838D01*
X159299495Y-85948828D02*
X160061400Y-85948828D01*
X159680447Y-86329780D02*
X159680447Y-85567876D01*
X160442352Y-85329780D02*
X161061400Y-85329780D01*
X160728066Y-85710733D01*
X160870923Y-85710733D01*
X160966161Y-85758352D01*
X161013780Y-85805971D01*
X161061400Y-85901209D01*
X161061400Y-86139304D01*
X161013780Y-86234542D01*
X160966161Y-86282161D01*
X160870923Y-86329780D01*
X160585209Y-86329780D01*
X160489971Y-86282161D01*
X160442352Y-86234542D01*
X161347114Y-85329780D02*
X161680447Y-86329780D01*
X162013780Y-85329780D01*
X162251876Y-85329780D02*
X162870923Y-85329780D01*
X162537590Y-85710733D01*
X162680447Y-85710733D01*
X162775685Y-85758352D01*
X162823304Y-85805971D01*
X162870923Y-85901209D01*
X162870923Y-86139304D01*
X162823304Y-86234542D01*
X162775685Y-86282161D01*
X162680447Y-86329780D01*
X162394733Y-86329780D01*
X162299495Y-86282161D01*
X162251876Y-86234542D01*
X164871495Y-85402800D02*
X164776257Y-85355180D01*
X164633400Y-85355180D01*
X164490542Y-85402800D01*
X164395304Y-85498038D01*
X164347685Y-85593276D01*
X164300066Y-85783752D01*
X164300066Y-85926609D01*
X164347685Y-86117085D01*
X164395304Y-86212323D01*
X164490542Y-86307561D01*
X164633400Y-86355180D01*
X164728638Y-86355180D01*
X164871495Y-86307561D01*
X164919114Y-86259942D01*
X164919114Y-85926609D01*
X164728638Y-85926609D01*
X165347685Y-86355180D02*
X165347685Y-85355180D01*
X165919114Y-86355180D01*
X165919114Y-85355180D01*
X166395304Y-86355180D02*
X166395304Y-85355180D01*
X166633400Y-85355180D01*
X166776257Y-85402800D01*
X166871495Y-85498038D01*
X166919114Y-85593276D01*
X166966733Y-85783752D01*
X166966733Y-85926609D01*
X166919114Y-86117085D01*
X166871495Y-86212323D01*
X166776257Y-86307561D01*
X166633400Y-86355180D01*
X166395304Y-86355180D01*
X160028095Y-89825580D02*
X160599523Y-89825580D01*
X160313809Y-90825580D02*
X160313809Y-89825580D01*
X160837619Y-89825580D02*
X161504285Y-90825580D01*
X161504285Y-89825580D02*
X160837619Y-90825580D01*
X161885238Y-90825580D02*
X161885238Y-89825580D01*
X162123333Y-89825580D01*
X162266190Y-89873200D01*
X162361428Y-89968438D01*
X162409047Y-90063676D01*
X162456666Y-90254152D01*
X162456666Y-90397009D01*
X162409047Y-90587485D01*
X162361428Y-90682723D01*
X162266190Y-90777961D01*
X162123333Y-90825580D01*
X161885238Y-90825580D01*
X165119133Y-90825580D02*
X164785800Y-90349390D01*
X164547704Y-90825580D02*
X164547704Y-89825580D01*
X164928657Y-89825580D01*
X165023895Y-89873200D01*
X165071514Y-89920819D01*
X165119133Y-90016057D01*
X165119133Y-90158914D01*
X165071514Y-90254152D01*
X165023895Y-90301771D01*
X164928657Y-90349390D01*
X164547704Y-90349390D01*
X165452466Y-89825580D02*
X166119133Y-90825580D01*
X166119133Y-89825580D02*
X165452466Y-90825580D01*
X166500085Y-90825580D02*
X166500085Y-89825580D01*
X166738180Y-89825580D01*
X166881038Y-89873200D01*
X166976276Y-89968438D01*
X167023895Y-90063676D01*
X167071514Y-90254152D01*
X167071514Y-90397009D01*
X167023895Y-90587485D01*
X166976276Y-90682723D01*
X166881038Y-90777961D01*
X166738180Y-90825580D01*
X166500085Y-90825580D01*
X168506971Y-85688514D02*
X168506971Y-86355180D01*
X168506971Y-85783752D02*
X168554590Y-85736133D01*
X168649828Y-85688514D01*
X168792685Y-85688514D01*
X168887923Y-85736133D01*
X168935542Y-85831371D01*
X168935542Y-86355180D01*
X169983161Y-86355180D02*
X169649828Y-85878990D01*
X169411733Y-86355180D02*
X169411733Y-85355180D01*
X169792685Y-85355180D01*
X169887923Y-85402800D01*
X169935542Y-85450419D01*
X169983161Y-85545657D01*
X169983161Y-85688514D01*
X169935542Y-85783752D01*
X169887923Y-85831371D01*
X169792685Y-85878990D01*
X169411733Y-85878990D01*
X170364114Y-86307561D02*
X170506971Y-86355180D01*
X170745066Y-86355180D01*
X170840304Y-86307561D01*
X170887923Y-86259942D01*
X170935542Y-86164704D01*
X170935542Y-86069466D01*
X170887923Y-85974228D01*
X170840304Y-85926609D01*
X170745066Y-85878990D01*
X170554590Y-85831371D01*
X170459352Y-85783752D01*
X170411733Y-85736133D01*
X170364114Y-85640895D01*
X170364114Y-85545657D01*
X170411733Y-85450419D01*
X170459352Y-85402800D01*
X170554590Y-85355180D01*
X170792685Y-85355180D01*
X170935542Y-85402800D01*
X171221257Y-85355180D02*
X171792685Y-85355180D01*
X171506971Y-86355180D02*
X171506971Y-85355180D01*
X168754609Y-89873200D02*
X168659371Y-89825580D01*
X168516514Y-89825580D01*
X168373657Y-89873200D01*
X168278419Y-89968438D01*
X168230800Y-90063676D01*
X168183180Y-90254152D01*
X168183180Y-90397009D01*
X168230800Y-90587485D01*
X168278419Y-90682723D01*
X168373657Y-90777961D01*
X168516514Y-90825580D01*
X168611752Y-90825580D01*
X168754609Y-90777961D01*
X168802228Y-90730342D01*
X168802228Y-90397009D01*
X168611752Y-90397009D01*
X169230800Y-90825580D02*
X169230800Y-89825580D01*
X169611752Y-89825580D01*
X169706990Y-89873200D01*
X169754609Y-89920819D01*
X169802228Y-90016057D01*
X169802228Y-90158914D01*
X169754609Y-90254152D01*
X169706990Y-90301771D01*
X169611752Y-90349390D01*
X169230800Y-90349390D01*
X170230800Y-90825580D02*
X170230800Y-89825580D01*
X170897466Y-89825580D02*
X171087942Y-89825580D01*
X171183180Y-89873200D01*
X171278419Y-89968438D01*
X171326038Y-90158914D01*
X171326038Y-90492247D01*
X171278419Y-90682723D01*
X171183180Y-90777961D01*
X171087942Y-90825580D01*
X170897466Y-90825580D01*
X170802228Y-90777961D01*
X170706990Y-90682723D01*
X170659371Y-90492247D01*
X170659371Y-90158914D01*
X170706990Y-89968438D01*
X170802228Y-89873200D01*
X170897466Y-89825580D01*
X171945085Y-89825580D02*
X172040323Y-89825580D01*
X172135561Y-89873200D01*
X172183180Y-89920819D01*
X172230800Y-90016057D01*
X172278419Y-90206533D01*
X172278419Y-90444628D01*
X172230800Y-90635104D01*
X172183180Y-90730342D01*
X172135561Y-90777961D01*
X172040323Y-90825580D01*
X171945085Y-90825580D01*
X171849847Y-90777961D01*
X171802228Y-90730342D01*
X171754609Y-90635104D01*
X171706990Y-90444628D01*
X171706990Y-90206533D01*
X171754609Y-90016057D01*
X171802228Y-89920819D01*
X171849847Y-89873200D01*
X171945085Y-89825580D01*
X129500380Y-130352704D02*
X130309904Y-130352704D01*
X130405142Y-130305085D01*
X130452761Y-130257466D01*
X130500380Y-130162228D01*
X130500380Y-129971752D01*
X130452761Y-129876514D01*
X130405142Y-129828895D01*
X130309904Y-129781276D01*
X129500380Y-129781276D01*
X130500380Y-128781276D02*
X130500380Y-129352704D01*
X130500380Y-129066990D02*
X129500380Y-129066990D01*
X129643238Y-129162228D01*
X129738476Y-129257466D01*
X129786095Y-129352704D01*
X143383095Y-121143780D02*
X143383095Y-121953304D01*
X143430714Y-122048542D01*
X143478333Y-122096161D01*
X143573571Y-122143780D01*
X143764047Y-122143780D01*
X143859285Y-122096161D01*
X143906904Y-122048542D01*
X143954523Y-121953304D01*
X143954523Y-121143780D01*
X144383095Y-121239019D02*
X144430714Y-121191400D01*
X144525952Y-121143780D01*
X144764047Y-121143780D01*
X144859285Y-121191400D01*
X144906904Y-121239019D01*
X144954523Y-121334257D01*
X144954523Y-121429495D01*
X144906904Y-121572352D01*
X144335476Y-122143780D01*
X144954523Y-122143780D01*
X146126295Y-122108980D02*
X146126295Y-122918504D01*
X146173914Y-123013742D01*
X146221533Y-123061361D01*
X146316771Y-123108980D01*
X146507247Y-123108980D01*
X146602485Y-123061361D01*
X146650104Y-123013742D01*
X146697723Y-122918504D01*
X146697723Y-122108980D01*
X147078676Y-122108980D02*
X147697723Y-122108980D01*
X147364390Y-122489933D01*
X147507247Y-122489933D01*
X147602485Y-122537552D01*
X147650104Y-122585171D01*
X147697723Y-122680409D01*
X147697723Y-122918504D01*
X147650104Y-123013742D01*
X147602485Y-123061361D01*
X147507247Y-123108980D01*
X147221533Y-123108980D01*
X147126295Y-123061361D01*
X147078676Y-123013742D01*
X160869380Y-117220904D02*
X161678904Y-117220904D01*
X161774142Y-117173285D01*
X161821761Y-117125666D01*
X161869380Y-117030428D01*
X161869380Y-116839952D01*
X161821761Y-116744714D01*
X161774142Y-116697095D01*
X161678904Y-116649476D01*
X160869380Y-116649476D01*
X161202714Y-115744714D02*
X161869380Y-115744714D01*
X160821761Y-115982809D02*
X161536047Y-116220904D01*
X161536047Y-115601857D01*
X138923780Y-105740104D02*
X139733304Y-105740104D01*
X139828542Y-105692485D01*
X139876161Y-105644866D01*
X139923780Y-105549628D01*
X139923780Y-105359152D01*
X139876161Y-105263914D01*
X139828542Y-105216295D01*
X139733304Y-105168676D01*
X138923780Y-105168676D01*
X138923780Y-104263914D02*
X138923780Y-104454390D01*
X138971400Y-104549628D01*
X139019019Y-104597247D01*
X139161876Y-104692485D01*
X139352352Y-104740104D01*
X139733304Y-104740104D01*
X139828542Y-104692485D01*
X139876161Y-104644866D01*
X139923780Y-104549628D01*
X139923780Y-104359152D01*
X139876161Y-104263914D01*
X139828542Y-104216295D01*
X139733304Y-104168676D01*
X139495209Y-104168676D01*
X139399971Y-104216295D01*
X139352352Y-104263914D01*
X139304733Y-104359152D01*
X139304733Y-104549628D01*
X139352352Y-104644866D01*
X139399971Y-104692485D01*
X139495209Y-104740104D01*
X137882380Y-103301704D02*
X138691904Y-103301704D01*
X138787142Y-103254085D01*
X138834761Y-103206466D01*
X138882380Y-103111228D01*
X138882380Y-102920752D01*
X138834761Y-102825514D01*
X138787142Y-102777895D01*
X138691904Y-102730276D01*
X137882380Y-102730276D01*
X137882380Y-102349323D02*
X137882380Y-101682657D01*
X138882380Y-102111228D01*
X147269295Y-111821980D02*
X147269295Y-112631504D01*
X147316914Y-112726742D01*
X147364533Y-112774361D01*
X147459771Y-112821980D01*
X147650247Y-112821980D01*
X147745485Y-112774361D01*
X147793104Y-112726742D01*
X147840723Y-112631504D01*
X147840723Y-111821980D01*
X148459771Y-112250552D02*
X148364533Y-112202933D01*
X148316914Y-112155314D01*
X148269295Y-112060076D01*
X148269295Y-112012457D01*
X148316914Y-111917219D01*
X148364533Y-111869600D01*
X148459771Y-111821980D01*
X148650247Y-111821980D01*
X148745485Y-111869600D01*
X148793104Y-111917219D01*
X148840723Y-112012457D01*
X148840723Y-112060076D01*
X148793104Y-112155314D01*
X148745485Y-112202933D01*
X148650247Y-112250552D01*
X148459771Y-112250552D01*
X148364533Y-112298171D01*
X148316914Y-112345790D01*
X148269295Y-112441028D01*
X148269295Y-112631504D01*
X148316914Y-112726742D01*
X148364533Y-112774361D01*
X148459771Y-112821980D01*
X148650247Y-112821980D01*
X148745485Y-112774361D01*
X148793104Y-112726742D01*
X148840723Y-112631504D01*
X148840723Y-112441028D01*
X148793104Y-112345790D01*
X148745485Y-112298171D01*
X148650247Y-112250552D01*
X151307895Y-111771180D02*
X151307895Y-112580704D01*
X151355514Y-112675942D01*
X151403133Y-112723561D01*
X151498371Y-112771180D01*
X151688847Y-112771180D01*
X151784085Y-112723561D01*
X151831704Y-112675942D01*
X151879323Y-112580704D01*
X151879323Y-111771180D01*
X152403133Y-112771180D02*
X152593609Y-112771180D01*
X152688847Y-112723561D01*
X152736466Y-112675942D01*
X152831704Y-112533085D01*
X152879323Y-112342609D01*
X152879323Y-111961657D01*
X152831704Y-111866419D01*
X152784085Y-111818800D01*
X152688847Y-111771180D01*
X152498371Y-111771180D01*
X152403133Y-111818800D01*
X152355514Y-111866419D01*
X152307895Y-111961657D01*
X152307895Y-112199752D01*
X152355514Y-112294990D01*
X152403133Y-112342609D01*
X152498371Y-112390228D01*
X152688847Y-112390228D01*
X152784085Y-112342609D01*
X152831704Y-112294990D01*
X152879323Y-112199752D01*
X167875104Y-117816380D02*
X167875104Y-118625904D01*
X167922723Y-118721142D01*
X167970342Y-118768761D01*
X168065580Y-118816380D01*
X168256057Y-118816380D01*
X168351295Y-118768761D01*
X168398914Y-118721142D01*
X168446533Y-118625904D01*
X168446533Y-117816380D01*
X169446533Y-118816380D02*
X168875104Y-118816380D01*
X169160819Y-118816380D02*
X169160819Y-117816380D01*
X169065580Y-117959238D01*
X168970342Y-118054476D01*
X168875104Y-118102095D01*
X170065580Y-117816380D02*
X170160819Y-117816380D01*
X170256057Y-117864000D01*
X170303676Y-117911619D01*
X170351295Y-118006857D01*
X170398914Y-118197333D01*
X170398914Y-118435428D01*
X170351295Y-118625904D01*
X170303676Y-118721142D01*
X170256057Y-118768761D01*
X170160819Y-118816380D01*
X170065580Y-118816380D01*
X169970342Y-118768761D01*
X169922723Y-118721142D01*
X169875104Y-118625904D01*
X169827485Y-118435428D01*
X169827485Y-118197333D01*
X169875104Y-118006857D01*
X169922723Y-117911619D01*
X169970342Y-117864000D01*
X170065580Y-117816380D01*
M02*
