M48
; DRILL file {KiCad 5.1.5+dfsg1-2build2} date Sa 08 Jan 2022 21:28:17 CET
; FORMAT={-:-/ absolute / inch / decimal}
; #@! TF.CreationDate,2022-01-08T21:28:17+01:00
; #@! TF.GenerationSoftware,Kicad,Pcbnew,5.1.5+dfsg1-2build2
; #@! TF.FileFunction,Plated,1,2,PTH
FMAT,2
INCH
T1C0.0157
T2C0.0197
%
G90
G05
T1
X5.105Y-3.91
X5.12Y-3.81
X5.125Y-3.985
X5.145Y-3.91
X5.1687Y-5.175
X5.17Y-4.735
X5.2Y-4.925
X5.2Y-4.975
X5.235Y-3.41
X5.265Y-5.025
X5.265Y-5.074
X5.275Y-4.75
X5.29Y-5.15
X5.305Y-4.87
X5.31Y-4.615
X5.325Y-4.31
X5.325Y-4.41
X5.325Y-5.025
X5.3974Y-4.875
X5.3974Y-5.075
X5.4049Y-5.205
X5.415Y-4.31
X5.42Y-4.38
X5.4975Y-5.1059
X5.51Y-4.78
X5.5475Y-5.1059
X5.555Y-4.985
X5.56Y-4.605
X5.575Y-3.77
X5.575Y-3.85
X5.575Y-3.93
X5.575Y-4.01
X5.5975Y-4.8925
X5.5975Y-5.1059
X5.635Y-4.51
X5.6475Y-5.1059
X5.6975Y-5.1059
X5.72Y-3.845
X5.73Y-4.32
X5.735Y-5.02
X5.7475Y-5.1059
X5.755Y-3.68
X5.77Y-4.22
X5.785Y-5.23
X5.79Y-4.06
X5.79Y-5.075
X5.8214Y-3.8014
X5.823Y-4.364
X5.845Y-5.015
X5.87Y-3.795
X5.915Y-4.215
X5.945Y-3.86
X5.955Y-4.05
X5.975Y-3.55
X5.99Y-4.22
X5.99Y-4.515
X5.995Y-4.795
X6.03Y-3.895
X6.08Y-4.03
X6.08Y-4.07
X6.09Y-4.4926
X6.14Y-4.6874
X6.165Y-3.9309
X6.1742Y-3.6947
X6.1742Y-3.7734
X6.1742Y-3.8522
X6.175Y-4.01
X6.24Y-4.6874
X6.245Y-4.335
X6.255Y-4.265
X6.2628Y-3.5372
X6.28Y-3.965
X6.285Y-4.425
X6.29Y-4.685
X6.29Y-5.175
X6.305Y-4.855
X6.31Y-4.025
X6.315Y-4.225
X6.315Y-5.1186
X6.34Y-4.185
X6.345Y-4.0
X6.355Y-3.3
X6.355Y-5.06
X6.405Y-3.8
X6.405Y-3.85
X6.405Y-3.9
X6.405Y-3.95
X6.405Y-4.2
X6.45Y-5.11
X6.47Y-4.15
X6.475Y-3.73
X6.475Y-4.27
X6.5Y-4.075
X6.5Y-5.1081
X6.5051Y-3.5401
X6.515Y-3.945
X6.525Y-4.27
X6.53Y-4.495
X6.54Y-4.195
X6.55Y-5.1081
X6.58Y-4.54
X6.6Y-4.11
X6.6Y-4.495
X6.6Y-5.1081
X6.606Y-4.57
X6.65Y-5.1081
X6.6521Y-4.495
X6.675Y-4.27
X6.68Y-4.865
X6.7Y-5.1081
X6.7117Y-3.9517
X6.725Y-4.27
X6.74Y-4.125
X6.75Y-4.445
X6.75Y-5.1081
X6.775Y-4.27
X6.8Y-4.415
X6.8Y-5.1081
X6.828Y-3.281
X6.845Y-3.8
X6.845Y-4.0
X6.845Y-4.1
X6.845Y-4.15
X6.845Y-4.2
X6.85Y-4.505
X6.85Y-5.1081
X6.9Y-4.345
X6.9Y-5.19
X6.9Y-5.23
X6.9Y-5.27
X6.931Y-3.606
X6.945Y-5.19
X6.945Y-5.23
X6.945Y-5.27
X6.95Y-3.672
X6.985Y-3.55
X6.985Y-3.59
T2
X5.21Y-4.57
X5.21Y-4.66
X6.975Y-3.485
X6.975Y-3.385
T0
M30
