G04 #@! TF.GenerationSoftware,KiCad,Pcbnew,5.1.5+dfsg1-2build2*
G04 #@! TF.CreationDate,2022-01-08T21:25:08+01:00*
G04 #@! TF.ProjectId,wifi-gb-cart,77696669-2d67-4622-9d63-6172742e6b69,rev?*
G04 #@! TF.SameCoordinates,Original*
G04 #@! TF.FileFunction,Copper,L2,Bot*
G04 #@! TF.FilePolarity,Positive*
%FSLAX46Y46*%
G04 Gerber Fmt 4.6, Leading zero omitted, Abs format (unit mm)*
G04 Created by KiCad (PCBNEW 5.1.5+dfsg1-2build2) date 2022-01-08 21:25:08*
%MOMM*%
%LPD*%
G04 APERTURE LIST*
%ADD10R,1.000000X1.000000*%
%ADD11C,0.800000*%
%ADD12C,0.250000*%
%ADD13C,0.254000*%
G04 APERTURE END LIST*
D10*
X132334000Y-116078000D03*
X132334000Y-118364000D03*
X177165000Y-85979000D03*
X177165000Y-88519000D03*
D11*
X152146000Y-114681000D03*
X160401000Y-130011500D03*
X158877000Y-108331000D03*
X159766000Y-118999000D03*
X130048000Y-96774000D03*
X130175000Y-101219000D03*
X176403000Y-133858000D03*
X175260000Y-133858000D03*
X175260000Y-132842000D03*
X176403000Y-132842000D03*
X176403000Y-131826000D03*
X175260000Y-131826000D03*
X177419000Y-90170000D03*
X170477911Y-100373911D03*
X167640000Y-104394000D03*
X177419000Y-91186000D03*
X151765000Y-90170000D03*
X146177000Y-93472000D03*
X151257000Y-102870000D03*
X151003000Y-98044000D03*
X145288000Y-97663000D03*
X147066000Y-103124000D03*
X154432000Y-102362000D03*
X150241000Y-107061000D03*
X146558000Y-107188000D03*
X145542000Y-109728000D03*
X137668000Y-111252000D03*
X135255000Y-112014000D03*
X135255000Y-109474000D03*
X137541000Y-109474000D03*
X134874000Y-117221000D03*
X131318000Y-120269000D03*
X133985000Y-120650000D03*
X141224000Y-116967000D03*
X134747000Y-123698000D03*
X139954000Y-121412000D03*
X129667000Y-99314000D03*
X130683000Y-99314000D03*
X154432000Y-103378000D03*
X152273000Y-121793000D03*
X148463000Y-127381000D03*
X146939000Y-132842000D03*
X147066000Y-128905000D03*
X158623000Y-110109000D03*
X160147000Y-123317000D03*
X171196000Y-104775000D03*
X165481000Y-100203000D03*
X169672000Y-123571000D03*
X165862000Y-114173000D03*
X167640000Y-114173000D03*
X159639000Y-112395000D03*
X173431200Y-83337400D03*
X161417000Y-83820000D03*
X147862999Y-96554999D03*
X176047400Y-91592400D03*
X152146000Y-107188000D03*
X133731000Y-128879600D03*
X132080000Y-125095000D03*
X147904200Y-110845600D03*
X154686000Y-114111000D03*
X145669000Y-127508000D03*
X143129000Y-114554000D03*
X137095000Y-128905000D03*
X159766000Y-131445000D03*
X135255000Y-127635000D03*
X137095000Y-123825000D03*
X131285000Y-131445000D03*
X133731000Y-127635000D03*
X161417000Y-128524000D03*
X132080000Y-126365000D03*
X163830000Y-129794000D03*
X161036000Y-106299000D03*
X137285000Y-132207000D03*
X173863000Y-104140000D03*
X166116000Y-106553000D03*
X173863000Y-96520000D03*
X142176500Y-124269500D03*
X164465000Y-94742000D03*
X141097000Y-126619000D03*
X162687000Y-96520000D03*
X145986500Y-129690900D03*
X162687000Y-97790000D03*
X144716500Y-129690900D03*
X162687000Y-99060000D03*
X143446500Y-129690900D03*
X162687000Y-100330000D03*
X142176500Y-129690900D03*
X140906500Y-129690900D03*
X161163000Y-101600000D03*
X139636500Y-129690900D03*
X160274000Y-102235000D03*
X155956000Y-119061000D03*
X164338000Y-105410000D03*
X158496000Y-119061000D03*
X160401000Y-107315000D03*
X162687000Y-106680000D03*
X165100000Y-129745000D03*
X164465000Y-108458000D03*
X166370000Y-129745000D03*
X165735000Y-108458000D03*
X167640000Y-129745000D03*
X169545000Y-108458000D03*
X168910000Y-129745000D03*
X170815000Y-108458000D03*
X170180000Y-129745000D03*
X172085000Y-108458000D03*
X171450000Y-129745000D03*
X173863000Y-106680000D03*
X172720000Y-129745000D03*
X173863000Y-105410000D03*
X173990000Y-129745000D03*
X173863000Y-101600000D03*
X159512000Y-100711000D03*
X165100000Y-103505000D03*
X134366000Y-130810000D03*
X156845000Y-101854000D03*
X175260000Y-110363000D03*
X165230500Y-89919500D03*
X176530000Y-93268800D03*
X141605000Y-101854000D03*
X172720000Y-112141000D03*
X141605000Y-97790000D03*
X173990000Y-114427000D03*
X141605000Y-99822000D03*
X171450000Y-112903000D03*
X156591000Y-99845000D03*
X168963002Y-114173000D03*
X156825000Y-97845000D03*
X167132000Y-115316000D03*
X159075000Y-89845000D03*
X167792400Y-116078000D03*
X132969000Y-86614000D03*
X141605000Y-95758000D03*
X153162000Y-98933000D03*
X156825000Y-95845000D03*
X149098000Y-96393000D03*
X156825000Y-93845000D03*
D12*
X155034001Y-122942999D02*
X157607000Y-125515998D01*
X155411001Y-114459001D02*
X155034001Y-114836001D01*
X155411001Y-113762999D02*
X155411001Y-114459001D01*
X155034001Y-114836001D02*
X155034001Y-122942999D01*
X155034001Y-113385999D02*
X155411001Y-113762999D01*
X153441001Y-113385999D02*
X155034001Y-113385999D01*
X152146000Y-114681000D02*
X153441001Y-113385999D01*
X157607000Y-125515998D02*
X157607000Y-128270000D01*
X159348500Y-130011500D02*
X160401000Y-130011500D01*
X157607000Y-128270000D02*
X159348500Y-130011500D01*
X153441001Y-112820997D02*
X153441001Y-113385999D01*
X157930998Y-108331000D02*
X153441001Y-112820997D01*
X158877000Y-108331000D02*
X157930998Y-108331000D01*
X147862999Y-96554999D02*
X147828000Y-96589998D01*
X168275000Y-83820000D02*
X161417000Y-83820000D01*
X176047400Y-91592400D02*
X168275000Y-83820000D01*
X151023008Y-93394990D02*
X147862999Y-96554999D01*
X154483610Y-93394990D02*
X151023008Y-93394990D01*
X161417000Y-83820000D02*
X161417000Y-86461600D01*
X161417000Y-86461600D02*
X154483610Y-93394990D01*
X151746001Y-107587999D02*
X152146000Y-107188000D01*
X151746001Y-108093179D02*
X151746001Y-107587999D01*
X146811808Y-113027372D02*
X151746001Y-108093179D01*
X146811808Y-117478780D02*
X146811808Y-113027372D01*
X135410988Y-128879600D02*
X146811808Y-117478780D01*
X133731000Y-128879600D02*
X135410988Y-128879600D01*
X132080000Y-124529315D02*
X132080000Y-125095000D01*
X145363716Y-111245599D02*
X132080000Y-124529315D01*
X147504201Y-111245599D02*
X145363716Y-111245599D01*
X147904200Y-110845600D02*
X147504201Y-111245599D01*
X151322000Y-117475000D02*
X154686000Y-114111000D01*
X151322000Y-122490000D02*
X151322000Y-117475000D01*
X148971000Y-124841000D02*
X151322000Y-122490000D01*
X148971000Y-125730000D02*
X148971000Y-124841000D01*
X147193000Y-127508000D02*
X148971000Y-125730000D01*
X145669000Y-127508000D02*
X147193000Y-127508000D01*
X138873000Y-130683000D02*
X137095000Y-128905000D01*
X158057315Y-130683000D02*
X138873000Y-130683000D01*
X158877000Y-131445000D02*
X158057315Y-130683000D01*
X159766000Y-131445000D02*
X158877000Y-131445000D01*
X143129000Y-115119685D02*
X143129000Y-114554000D01*
X135820685Y-127635000D02*
X143129000Y-120326685D01*
X143129000Y-120326685D02*
X143129000Y-115119685D01*
X135255000Y-127635000D02*
X135820685Y-127635000D01*
X135825000Y-125095000D02*
X137095000Y-123825000D01*
X135197998Y-125095000D02*
X135825000Y-125095000D01*
X131285000Y-129007998D02*
X135197998Y-125095000D01*
X131285000Y-131445000D02*
X131285000Y-129007998D01*
X133731000Y-127635000D02*
X133731000Y-127635000D01*
X161417000Y-130867002D02*
X161417000Y-128524000D01*
X160114001Y-132170001D02*
X161417000Y-130867002D01*
X133731000Y-127635000D02*
X133005999Y-128360001D01*
X133005999Y-129227601D02*
X133350000Y-129571602D01*
X133350000Y-130867002D02*
X134197904Y-131714906D01*
X134197904Y-131714906D02*
X134534096Y-131714906D01*
X133005999Y-128360001D02*
X133005999Y-129227601D01*
X134534096Y-131714906D02*
X135128758Y-131120244D01*
X133350000Y-129571602D02*
X133350000Y-130867002D01*
X158564599Y-131769009D02*
X158965591Y-132170001D01*
X138673834Y-131120244D02*
X138686600Y-131133010D01*
X138686600Y-131133010D02*
X157880455Y-131133010D01*
X135128758Y-131120244D02*
X138673834Y-131120244D01*
X157880455Y-131133010D02*
X158564599Y-131769009D01*
X158965591Y-132170001D02*
X160114001Y-132170001D01*
X163830000Y-129794000D02*
X161417000Y-127381000D01*
X161417000Y-127381000D02*
X161417000Y-106680000D01*
X161417000Y-106680000D02*
X161036000Y-106299000D01*
X161036000Y-106299000D02*
X161036000Y-106299000D01*
X130936999Y-132170001D02*
X130559999Y-131793001D01*
X134714001Y-132170001D02*
X130936999Y-132170001D01*
X130559999Y-127885001D02*
X132080000Y-126365000D01*
X130559999Y-131793001D02*
X130559999Y-127885001D01*
X137285000Y-132207000D02*
X134714001Y-132170001D01*
X161003989Y-132620011D02*
X163430001Y-130193999D01*
X158262991Y-132620011D02*
X161003989Y-132620011D01*
X157226000Y-131583020D02*
X158262991Y-132620011D01*
X138500200Y-131583020D02*
X157226000Y-131583020D01*
X138487433Y-131570253D02*
X138500200Y-131583020D01*
X163430001Y-130193999D02*
X163830000Y-129794000D01*
X137850685Y-132207000D02*
X138487433Y-131570253D01*
X137285000Y-132207000D02*
X137850685Y-132207000D01*
X171450000Y-106553000D02*
X173863000Y-104140000D01*
X166116000Y-106553000D02*
X171450000Y-106553000D01*
X142743218Y-124269500D02*
X142176500Y-124269500D01*
X147271919Y-119740799D02*
X142743218Y-124269500D01*
X147261818Y-119067818D02*
X147271919Y-119077920D01*
X173863000Y-96520000D02*
X166878000Y-96520000D01*
X158357980Y-102117610D02*
X147261818Y-113213772D01*
X165190001Y-94393999D02*
X164813001Y-94016999D01*
X165190001Y-94832001D02*
X165190001Y-94393999D01*
X164813001Y-94016999D02*
X163480589Y-94016999D01*
X163480589Y-94016999D02*
X160839990Y-96657598D01*
X166878000Y-96520000D02*
X165190001Y-94832001D01*
X160839990Y-96657598D02*
X160839990Y-98310008D01*
X147261818Y-113213772D02*
X147261818Y-119067818D01*
X147271919Y-119077920D02*
X147271919Y-119740799D01*
X160839990Y-98310008D02*
X158786999Y-100362999D01*
X158786999Y-100362999D02*
X158786999Y-101255999D01*
X158786999Y-101255999D02*
X158357980Y-101685018D01*
X158357980Y-101685018D02*
X158357980Y-102117610D01*
X162338999Y-95794999D02*
X161290000Y-96843998D01*
X163412001Y-95794999D02*
X162338999Y-95794999D01*
X164465000Y-94742000D02*
X163412001Y-95794999D01*
X161290000Y-96843998D02*
X161290000Y-100330000D01*
X159258000Y-102177998D02*
X159258000Y-102549128D01*
X161105998Y-100330000D02*
X159258000Y-102177998D01*
X161290000Y-100330000D02*
X161105998Y-100330000D01*
X159258000Y-102549128D02*
X154525564Y-107281564D01*
X154525564Y-107281564D02*
X148171938Y-113635192D01*
X148171938Y-113635192D02*
X148171938Y-120113600D01*
X148171938Y-120113600D02*
X141940569Y-126344969D01*
X141940569Y-126344969D02*
X141826269Y-126459269D01*
X141826269Y-126459269D02*
X141666538Y-126619000D01*
X141666538Y-126619000D02*
X141097000Y-126619000D01*
X141097000Y-126619000D02*
X141097000Y-126619000D01*
X144943999Y-127159999D02*
X150871990Y-121232008D01*
X144943999Y-127856001D02*
X144943999Y-127159999D01*
X146286500Y-129198502D02*
X144943999Y-127856001D01*
X146286500Y-129390900D02*
X146286500Y-129198502D01*
X145986500Y-129690900D02*
X146286500Y-129390900D01*
X150871992Y-114753596D02*
X160665598Y-104959990D01*
X150871990Y-121232008D02*
X150871992Y-114753596D01*
X164312021Y-98145021D02*
X163086999Y-96919999D01*
X164312021Y-103590801D02*
X164312021Y-98145021D01*
X163086999Y-96919999D02*
X162687000Y-96520000D01*
X162942832Y-104959990D02*
X164312021Y-103590801D01*
X160665598Y-104959990D02*
X162942832Y-104959990D01*
X144493989Y-129468389D02*
X144493990Y-126973598D01*
X144716500Y-129690900D02*
X144493989Y-129468389D01*
X144493990Y-126973598D02*
X150421981Y-121045607D01*
X150421981Y-121045607D02*
X150421983Y-114567195D01*
X150421983Y-114567195D02*
X160479198Y-104509980D01*
X162687000Y-97917000D02*
X162687000Y-97790000D01*
X163862011Y-99092011D02*
X162687000Y-97917000D01*
X162756433Y-104509979D02*
X163862011Y-103404401D01*
X163862011Y-103404401D02*
X163862011Y-99092011D01*
X160479198Y-104509980D02*
X162756433Y-104509979D01*
X163412001Y-103218001D02*
X163412001Y-99785001D01*
X162570032Y-104059970D02*
X163412001Y-103218001D01*
X149971974Y-114380794D02*
X160292798Y-104059970D01*
X163086999Y-99459999D02*
X162687000Y-99060000D01*
X160292798Y-104059970D02*
X162570032Y-104059970D01*
X149971972Y-120859206D02*
X149971974Y-114380794D01*
X143446500Y-127384678D02*
X149971972Y-120859206D01*
X163412001Y-99785001D02*
X163086999Y-99459999D01*
X143446500Y-129690900D02*
X143446500Y-127384678D01*
X142176500Y-129690900D02*
X142176500Y-128018268D01*
X149521963Y-120672805D02*
X149521965Y-114194393D01*
X142176500Y-128018268D02*
X149521963Y-120672805D01*
X149521965Y-114194393D02*
X160211358Y-103505000D01*
X162287001Y-100729999D02*
X162687000Y-100330000D01*
X161961999Y-101055001D02*
X162287001Y-100729999D01*
X161961999Y-102833001D02*
X161961999Y-101055001D01*
X161290000Y-103505000D02*
X161961999Y-102833001D01*
X160211358Y-103505000D02*
X161290000Y-103505000D01*
X161163000Y-102489000D02*
X161163000Y-101600000D01*
X160024958Y-103054990D02*
X160597010Y-103054990D01*
X149071956Y-114007992D02*
X160024958Y-103054990D01*
X149071954Y-120486404D02*
X149071956Y-114007992D01*
X140906500Y-128651858D02*
X149071954Y-120486404D01*
X160597010Y-103054990D02*
X161163000Y-102489000D01*
X140906500Y-129690900D02*
X140906500Y-128651858D01*
X159893000Y-102616000D02*
X160274000Y-102235000D01*
X159827538Y-102616000D02*
X159893000Y-102616000D01*
X148621947Y-113821591D02*
X159827538Y-102616000D01*
X148621945Y-120300003D02*
X148621947Y-113821591D01*
X140905948Y-128016000D02*
X148621945Y-120300003D01*
X140336400Y-128016000D02*
X140905948Y-128016000D01*
X139636500Y-128715900D02*
X140336400Y-128016000D01*
X139636500Y-129690900D02*
X139636500Y-128715900D01*
X155956000Y-119061000D02*
X157418000Y-119061000D01*
X160458990Y-115764600D02*
X160516980Y-115706610D01*
X160458990Y-116020010D02*
X160458990Y-115764600D01*
X157418000Y-119061000D02*
X160458990Y-116020010D01*
X160516980Y-115706610D02*
X160516980Y-111125000D01*
X159675999Y-107663001D02*
X159675999Y-106897001D01*
X160516980Y-108503982D02*
X159675999Y-107663001D01*
X160516980Y-111125000D02*
X160516980Y-108503982D01*
X160310999Y-105950999D02*
X160851998Y-105410000D01*
X160310999Y-106331999D02*
X160310999Y-105950999D01*
X159745997Y-106897001D02*
X160310999Y-106331999D01*
X159675999Y-106897001D02*
X159745997Y-106897001D01*
X160851998Y-105410000D02*
X164338000Y-105410000D01*
X164338000Y-105410000D02*
X164338000Y-105410000D01*
X158496000Y-119061000D02*
X160909000Y-116648000D01*
X160909000Y-115951000D02*
X160966990Y-115893010D01*
X160909000Y-116648000D02*
X160909000Y-115951000D01*
X160966990Y-115893010D02*
X160966990Y-107880990D01*
X160966990Y-107880990D02*
X160401000Y-107315000D01*
X160401000Y-107315000D02*
X160401000Y-107315000D01*
X165100000Y-129745000D02*
X161867010Y-126512010D01*
X161867010Y-107499990D02*
X162687000Y-106680000D01*
X161867010Y-126512010D02*
X161867010Y-107499990D01*
X166370000Y-129745000D02*
X162317020Y-125692020D01*
X162317020Y-110605980D02*
X164465000Y-108458000D01*
X162317020Y-125692020D02*
X162317020Y-110605980D01*
X162767030Y-111425970D02*
X165735000Y-108458000D01*
X162767030Y-124872030D02*
X162767030Y-111425970D01*
X167640000Y-129745000D02*
X162767030Y-124872030D01*
X166497000Y-109728000D02*
X168275000Y-109728000D01*
X163217040Y-113007960D02*
X166497000Y-109728000D01*
X168275000Y-109728000D02*
X169545000Y-108458000D01*
X163217040Y-124052040D02*
X163217040Y-113007960D01*
X168910000Y-129745000D02*
X163217040Y-124052040D01*
X170180000Y-129745000D02*
X164768000Y-124333000D01*
X164719000Y-124333000D02*
X163667050Y-123281050D01*
X164768000Y-124333000D02*
X164719000Y-124333000D01*
X163667050Y-123281050D02*
X163667050Y-113194360D01*
X163667050Y-113194360D02*
X166683400Y-110178010D01*
X169094990Y-110178010D02*
X170815000Y-108458000D01*
X166683400Y-110178010D02*
X169094990Y-110178010D01*
X169914980Y-110628020D02*
X172085000Y-108458000D01*
X164117060Y-113380760D02*
X166869800Y-110628020D01*
X164117060Y-122461060D02*
X164117060Y-113380760D01*
X171101000Y-129445000D02*
X164117060Y-122461060D01*
X171150000Y-129445000D02*
X171101000Y-129445000D01*
X166869800Y-110628020D02*
X169914980Y-110628020D01*
X171450000Y-129745000D02*
X171150000Y-129445000D01*
X173863000Y-107245685D02*
X173863000Y-106680000D01*
X173863000Y-107753002D02*
X173863000Y-107245685D01*
X170537972Y-111078030D02*
X173863000Y-107753002D01*
X167056200Y-111078030D02*
X170537972Y-111078030D01*
X164567070Y-113567160D02*
X167056200Y-111078030D01*
X164567070Y-121592070D02*
X164567070Y-113567160D01*
X172720000Y-129745000D02*
X164567070Y-121592070D01*
X174588001Y-107664411D02*
X174588001Y-106135001D01*
X170724373Y-111528039D02*
X174588001Y-107664411D01*
X167242600Y-111528040D02*
X170724373Y-111528039D01*
X174262999Y-105809999D02*
X173863000Y-105410000D01*
X165017080Y-113753560D02*
X167242600Y-111528040D01*
X174588001Y-106135001D02*
X174262999Y-105809999D01*
X165017080Y-120772080D02*
X165017080Y-113753560D01*
X173990000Y-129745000D02*
X165017080Y-120772080D01*
X159512000Y-100711000D02*
X159512000Y-100711000D01*
X165665685Y-103505000D02*
X165100000Y-103505000D01*
X167570685Y-101600000D02*
X165665685Y-103505000D01*
X173863000Y-101600000D02*
X167570685Y-101600000D01*
X159512000Y-101287588D02*
X159512000Y-100711000D01*
X158807990Y-101991598D02*
X159512000Y-101287588D01*
X157226000Y-103886000D02*
X158807990Y-102304010D01*
X134366000Y-130560998D02*
X139032999Y-125893999D01*
X141755129Y-125893999D02*
X147721928Y-119927200D01*
X147721928Y-119927200D02*
X147721929Y-113448791D01*
X134366000Y-130810000D02*
X134366000Y-130560998D01*
X147721929Y-113448791D02*
X157226000Y-103944720D01*
X157226000Y-103944720D02*
X157226000Y-103886000D01*
X158807990Y-102304010D02*
X158807990Y-101991598D01*
X139032999Y-125893999D02*
X141755129Y-125893999D01*
X158336989Y-101069599D02*
X157552588Y-101854000D01*
X160389980Y-98123608D02*
X158336989Y-100176599D01*
X160389980Y-96471198D02*
X160389980Y-98123608D01*
X175260000Y-96843998D02*
X171982991Y-93566989D01*
X158336989Y-100176599D02*
X158336989Y-101069599D01*
X163294188Y-93566990D02*
X160389980Y-96471198D01*
X157552588Y-101854000D02*
X156845000Y-101854000D01*
X171982991Y-93566989D02*
X163294188Y-93566990D01*
X175260000Y-110363000D02*
X175260000Y-96843998D01*
X172977500Y-89919500D02*
X165230500Y-89919500D01*
X173180700Y-89919500D02*
X172977500Y-89919500D01*
X176530000Y-93268800D02*
X173180700Y-89919500D01*
X175985001Y-110711001D02*
X174555002Y-112141000D01*
X175985001Y-96932589D02*
X175985001Y-110711001D01*
X172169392Y-93116980D02*
X175985001Y-96932589D01*
X173285685Y-112141000D02*
X172720000Y-112141000D01*
X163107789Y-93116981D02*
X172169392Y-93116980D01*
X159939971Y-96284797D02*
X163107789Y-93116981D01*
X174555002Y-112141000D02*
X173285685Y-112141000D01*
X157886980Y-99990198D02*
X159939970Y-97937208D01*
X157886979Y-100883199D02*
X157886980Y-99990198D01*
X159939970Y-97937208D02*
X159939971Y-96284797D01*
X157641179Y-101128999D02*
X157886979Y-100883199D01*
X142330001Y-101128999D02*
X157641179Y-101128999D01*
X141605000Y-101854000D02*
X142330001Y-101128999D01*
X174496590Y-114427000D02*
X173990000Y-114427000D01*
X177335029Y-96373389D02*
X177335028Y-111588562D01*
X162548592Y-91766954D02*
X172728595Y-91766953D01*
X158589944Y-97209646D02*
X158589944Y-95725595D01*
X156679591Y-99119999D02*
X158589944Y-97209646D01*
X177335028Y-111588562D02*
X174496590Y-114427000D01*
X156242999Y-99119999D02*
X156679591Y-99119999D01*
X172728595Y-91766953D02*
X177335029Y-96373389D01*
X155134019Y-100228979D02*
X156242999Y-99119999D01*
X158589944Y-95725595D02*
X162548592Y-91766954D01*
X144043979Y-100228979D02*
X155134019Y-100228979D01*
X141605000Y-97790000D02*
X144043979Y-100228979D01*
X174747770Y-112903000D02*
X174241180Y-112903000D01*
X176435010Y-111215760D02*
X174747770Y-112903000D01*
X176435011Y-96746189D02*
X176435010Y-111215760D01*
X172355793Y-92666971D02*
X176435011Y-96746189D01*
X162921390Y-92666972D02*
X172355793Y-92666971D01*
X159489961Y-97750807D02*
X159489962Y-96098396D01*
X157436971Y-99803797D02*
X159489961Y-97750807D01*
X156830013Y-100678989D02*
X157436970Y-100072032D01*
X142461989Y-100678989D02*
X156830013Y-100678989D01*
X174241180Y-112903000D02*
X171450000Y-112903000D01*
X159489962Y-96098396D02*
X162921390Y-92666972D01*
X157436970Y-100072032D02*
X157436971Y-99803797D01*
X141605000Y-99822000D02*
X142461989Y-100678989D01*
X169434003Y-113701999D02*
X168963002Y-114173000D01*
X176885019Y-111402161D02*
X174585181Y-113701999D01*
X176885020Y-96559790D02*
X176885019Y-111402161D01*
X172542194Y-92216962D02*
X176885020Y-96559790D01*
X174585181Y-113701999D02*
X169434003Y-113701999D01*
X162734991Y-92216963D02*
X172542194Y-92216962D01*
X159039954Y-95911995D02*
X162734991Y-92216963D01*
X159039954Y-97396046D02*
X159039954Y-95911995D01*
X156591000Y-99845000D02*
X159039954Y-97396046D01*
X158139934Y-97003066D02*
X157298000Y-97845000D01*
X162362193Y-91316945D02*
X161383567Y-92295568D01*
X158139934Y-95539195D02*
X158139934Y-97003066D01*
X172914994Y-91316944D02*
X162362193Y-91316945D01*
X177785038Y-111774962D02*
X177785038Y-96186990D01*
X161383567Y-92295568D02*
X158139934Y-95539195D01*
X177785038Y-96186990D02*
X172914994Y-91316944D01*
X174244000Y-115316000D02*
X177785038Y-111774962D01*
X157298000Y-97845000D02*
X156825000Y-97845000D01*
X167132000Y-115316000D02*
X174244000Y-115316000D01*
X167640000Y-116078000D02*
X167640000Y-116078000D01*
X159640685Y-89845000D02*
X159075000Y-89845000D01*
X160662621Y-90866936D02*
X159640685Y-89845000D01*
X173101395Y-90866935D02*
X160662621Y-90866936D01*
X178235048Y-96000590D02*
X173101395Y-90866935D01*
X178235047Y-111961363D02*
X178235048Y-96000590D01*
X174118410Y-116078000D02*
X178235047Y-111961363D01*
X167792400Y-116078000D02*
X174118410Y-116078000D01*
X141605000Y-95250000D02*
X141605000Y-95758000D01*
X132969000Y-86614000D02*
X141605000Y-95250000D01*
X153162000Y-98933000D02*
X153162000Y-97282000D01*
X154599000Y-95845000D02*
X156825000Y-95845000D01*
X153162000Y-97282000D02*
X154599000Y-95845000D01*
X151646000Y-93845000D02*
X156825000Y-93845000D01*
X149098000Y-96393000D02*
X151646000Y-93845000D01*
D13*
G36*
X140260001Y-88230113D02*
G01*
X140256565Y-88265000D01*
X140270273Y-88404184D01*
X140310872Y-88538020D01*
X140376800Y-88661363D01*
X140465525Y-88769475D01*
X140573637Y-88858200D01*
X140696980Y-88924128D01*
X140830816Y-88964727D01*
X140935123Y-88975000D01*
X140970000Y-88978435D01*
X141004877Y-88975000D01*
X157445123Y-88975000D01*
X157480000Y-88978435D01*
X157514877Y-88975000D01*
X157619184Y-88964727D01*
X157753020Y-88924128D01*
X157876363Y-88858200D01*
X157984475Y-88769475D01*
X158073200Y-88661363D01*
X158139128Y-88538020D01*
X158179727Y-88404184D01*
X158193435Y-88265000D01*
X158190000Y-88230123D01*
X158190000Y-81516593D01*
X174038760Y-81516593D01*
X174038761Y-83371706D01*
X174035325Y-83406593D01*
X174049033Y-83545777D01*
X174089632Y-83679613D01*
X174155560Y-83802956D01*
X174244285Y-83911068D01*
X174352397Y-83999793D01*
X174475740Y-84065721D01*
X174609576Y-84106320D01*
X174713883Y-84116593D01*
X174748760Y-84120028D01*
X174783637Y-84116593D01*
X178038761Y-84116593D01*
X178038761Y-84964275D01*
X178019494Y-84948463D01*
X177909180Y-84889498D01*
X177789482Y-84853188D01*
X177665000Y-84840928D01*
X176665000Y-84840928D01*
X176540518Y-84853188D01*
X176420820Y-84889498D01*
X176310506Y-84948463D01*
X176213815Y-85027815D01*
X176134463Y-85124506D01*
X176075498Y-85234820D01*
X176039188Y-85354518D01*
X176026928Y-85479000D01*
X176026928Y-86479000D01*
X176039188Y-86603482D01*
X176075498Y-86723180D01*
X176134463Y-86833494D01*
X176213815Y-86930185D01*
X176310506Y-87009537D01*
X176420820Y-87068502D01*
X176540518Y-87104812D01*
X176665000Y-87117072D01*
X177665000Y-87117072D01*
X177789482Y-87104812D01*
X177909180Y-87068502D01*
X178019494Y-87009537D01*
X178038761Y-86993725D01*
X178038761Y-87504275D01*
X178019494Y-87488463D01*
X177909180Y-87429498D01*
X177789482Y-87393188D01*
X177665000Y-87380928D01*
X176665000Y-87380928D01*
X176540518Y-87393188D01*
X176420820Y-87429498D01*
X176310506Y-87488463D01*
X176213815Y-87567815D01*
X176134463Y-87664506D01*
X176075498Y-87774820D01*
X176039188Y-87894518D01*
X176026928Y-88019000D01*
X176026928Y-89019000D01*
X176039188Y-89143482D01*
X176075498Y-89263180D01*
X176134463Y-89373494D01*
X176213815Y-89470185D01*
X176310506Y-89549537D01*
X176420820Y-89608502D01*
X176540518Y-89644812D01*
X176665000Y-89657072D01*
X177665000Y-89657072D01*
X177789482Y-89644812D01*
X177909180Y-89608502D01*
X178019494Y-89549537D01*
X178038761Y-89533725D01*
X178038761Y-94729501D01*
X177285886Y-93976625D01*
X177333937Y-93928574D01*
X177447205Y-93759056D01*
X177525226Y-93570698D01*
X177565000Y-93370739D01*
X177565000Y-93166861D01*
X177525226Y-92966902D01*
X177447205Y-92778544D01*
X177333937Y-92609026D01*
X177189774Y-92464863D01*
X177020256Y-92351595D01*
X176831898Y-92273574D01*
X176830262Y-92273249D01*
X176851337Y-92252174D01*
X176964605Y-92082656D01*
X177042626Y-91894298D01*
X177082400Y-91694339D01*
X177082400Y-91490461D01*
X177042626Y-91290502D01*
X176964605Y-91102144D01*
X176851337Y-90932626D01*
X176707174Y-90788463D01*
X176537656Y-90675195D01*
X176349298Y-90597174D01*
X176149339Y-90557400D01*
X176087203Y-90557400D01*
X168838804Y-83309003D01*
X168815001Y-83279999D01*
X168699276Y-83185026D01*
X168567247Y-83114454D01*
X168423986Y-83070997D01*
X168312333Y-83060000D01*
X168312322Y-83060000D01*
X168275000Y-83056324D01*
X168237678Y-83060000D01*
X162120711Y-83060000D01*
X162076774Y-83016063D01*
X161907256Y-82902795D01*
X161718898Y-82824774D01*
X161518939Y-82785000D01*
X161315061Y-82785000D01*
X161115102Y-82824774D01*
X160926744Y-82902795D01*
X160757226Y-83016063D01*
X160613063Y-83160226D01*
X160499795Y-83329744D01*
X160421774Y-83518102D01*
X160382000Y-83718061D01*
X160382000Y-83921939D01*
X160421774Y-84121898D01*
X160499795Y-84310256D01*
X160613063Y-84479774D01*
X160657000Y-84523711D01*
X160657001Y-86146797D01*
X154168809Y-92634990D01*
X151060341Y-92634990D01*
X151023008Y-92631313D01*
X150985675Y-92634990D01*
X150874022Y-92645987D01*
X150730761Y-92689444D01*
X150598732Y-92760016D01*
X150483007Y-92854989D01*
X150459209Y-92883987D01*
X147823198Y-95519999D01*
X147761060Y-95519999D01*
X147561101Y-95559773D01*
X147372743Y-95637794D01*
X147203225Y-95751062D01*
X147059062Y-95895225D01*
X146945794Y-96064743D01*
X146867773Y-96253101D01*
X146827999Y-96453060D01*
X146827999Y-96656938D01*
X146867773Y-96856897D01*
X146945794Y-97045255D01*
X147059062Y-97214773D01*
X147203225Y-97358936D01*
X147372743Y-97472204D01*
X147561101Y-97550225D01*
X147761060Y-97589999D01*
X147964938Y-97589999D01*
X148164897Y-97550225D01*
X148353255Y-97472204D01*
X148522773Y-97358936D01*
X148586020Y-97295689D01*
X148607744Y-97310205D01*
X148796102Y-97388226D01*
X148996061Y-97428000D01*
X149199939Y-97428000D01*
X149399898Y-97388226D01*
X149588256Y-97310205D01*
X149757774Y-97196937D01*
X149901937Y-97052774D01*
X150015205Y-96883256D01*
X150093226Y-96694898D01*
X150133000Y-96494939D01*
X150133000Y-96432801D01*
X151960802Y-94605000D01*
X156121289Y-94605000D01*
X156165226Y-94648937D01*
X156334744Y-94762205D01*
X156523102Y-94840226D01*
X156547103Y-94845000D01*
X156523102Y-94849774D01*
X156334744Y-94927795D01*
X156165226Y-95041063D01*
X156121289Y-95085000D01*
X154636323Y-95085000D01*
X154599000Y-95081324D01*
X154561677Y-95085000D01*
X154561667Y-95085000D01*
X154450014Y-95095997D01*
X154306753Y-95139454D01*
X154174723Y-95210026D01*
X154122355Y-95253004D01*
X154058999Y-95304999D01*
X154035201Y-95333997D01*
X152650998Y-96718201D01*
X152622000Y-96741999D01*
X152598202Y-96770997D01*
X152598201Y-96770998D01*
X152527026Y-96857724D01*
X152456454Y-96989754D01*
X152433326Y-97066001D01*
X152412998Y-97133014D01*
X152407856Y-97185226D01*
X152398324Y-97282000D01*
X152402001Y-97319332D01*
X152402000Y-98229289D01*
X152358063Y-98273226D01*
X152244795Y-98442744D01*
X152166774Y-98631102D01*
X152127000Y-98831061D01*
X152127000Y-99034939D01*
X152166774Y-99234898D01*
X152244795Y-99423256D01*
X152275346Y-99468979D01*
X144358781Y-99468979D01*
X142640000Y-97750199D01*
X142640000Y-97688061D01*
X142600226Y-97488102D01*
X142522205Y-97299744D01*
X142408937Y-97130226D01*
X142264774Y-96986063D01*
X142095256Y-96872795D01*
X141906898Y-96794774D01*
X141802459Y-96774000D01*
X141906898Y-96753226D01*
X142095256Y-96675205D01*
X142264774Y-96561937D01*
X142408937Y-96417774D01*
X142522205Y-96248256D01*
X142600226Y-96059898D01*
X142640000Y-95859939D01*
X142640000Y-95656061D01*
X142600226Y-95456102D01*
X142522205Y-95267744D01*
X142408937Y-95098226D01*
X142328869Y-95018158D01*
X142310546Y-94957753D01*
X142239974Y-94825724D01*
X142145001Y-94709999D01*
X142116004Y-94686202D01*
X134004000Y-86574199D01*
X134004000Y-86512061D01*
X133964226Y-86312102D01*
X133886205Y-86123744D01*
X133772937Y-85954226D01*
X133628774Y-85810063D01*
X133459256Y-85696795D01*
X133270898Y-85618774D01*
X133070939Y-85579000D01*
X132867061Y-85579000D01*
X132667102Y-85618774D01*
X132478744Y-85696795D01*
X132309226Y-85810063D01*
X132165063Y-85954226D01*
X132051795Y-86123744D01*
X131973774Y-86312102D01*
X131934000Y-86512061D01*
X131934000Y-86715939D01*
X131973774Y-86915898D01*
X132051795Y-87104256D01*
X132165063Y-87273774D01*
X132309226Y-87417937D01*
X132478744Y-87531205D01*
X132667102Y-87609226D01*
X132867061Y-87649000D01*
X132929199Y-87649000D01*
X140646833Y-95366635D01*
X140609774Y-95456102D01*
X140570000Y-95656061D01*
X140570000Y-95859939D01*
X140609774Y-96059898D01*
X140687795Y-96248256D01*
X140801063Y-96417774D01*
X140945226Y-96561937D01*
X141114744Y-96675205D01*
X141303102Y-96753226D01*
X141407541Y-96774000D01*
X141303102Y-96794774D01*
X141114744Y-96872795D01*
X140945226Y-96986063D01*
X140801063Y-97130226D01*
X140687795Y-97299744D01*
X140609774Y-97488102D01*
X140570000Y-97688061D01*
X140570000Y-97891939D01*
X140609774Y-98091898D01*
X140687795Y-98280256D01*
X140801063Y-98449774D01*
X140945226Y-98593937D01*
X141114744Y-98707205D01*
X141303102Y-98785226D01*
X141407541Y-98806000D01*
X141303102Y-98826774D01*
X141114744Y-98904795D01*
X140945226Y-99018063D01*
X140801063Y-99162226D01*
X140687795Y-99331744D01*
X140609774Y-99520102D01*
X140570000Y-99720061D01*
X140570000Y-99923939D01*
X140609774Y-100123898D01*
X140687795Y-100312256D01*
X140801063Y-100481774D01*
X140945226Y-100625937D01*
X141114744Y-100739205D01*
X141303102Y-100817226D01*
X141407541Y-100838000D01*
X141303102Y-100858774D01*
X141114744Y-100936795D01*
X140945226Y-101050063D01*
X140801063Y-101194226D01*
X140687795Y-101363744D01*
X140609774Y-101552102D01*
X140570000Y-101752061D01*
X140570000Y-101955939D01*
X140609774Y-102155898D01*
X140687795Y-102344256D01*
X140801063Y-102513774D01*
X140945226Y-102657937D01*
X141114744Y-102771205D01*
X141303102Y-102849226D01*
X141503061Y-102889000D01*
X141706939Y-102889000D01*
X141906898Y-102849226D01*
X142095256Y-102771205D01*
X142264774Y-102657937D01*
X142408937Y-102513774D01*
X142522205Y-102344256D01*
X142600226Y-102155898D01*
X142640000Y-101955939D01*
X142640000Y-101893802D01*
X142644803Y-101888999D01*
X155810000Y-101888999D01*
X155810000Y-101955939D01*
X155849774Y-102155898D01*
X155927795Y-102344256D01*
X156041063Y-102513774D01*
X156185226Y-102657937D01*
X156354744Y-102771205D01*
X156543102Y-102849226D01*
X156550159Y-102850630D01*
X152911250Y-106489539D01*
X152805774Y-106384063D01*
X152636256Y-106270795D01*
X152447898Y-106192774D01*
X152247939Y-106153000D01*
X152044061Y-106153000D01*
X151844102Y-106192774D01*
X151655744Y-106270795D01*
X151486226Y-106384063D01*
X151342063Y-106528226D01*
X151228795Y-106697744D01*
X151150774Y-106886102D01*
X151111000Y-107086061D01*
X151111000Y-107163774D01*
X151040455Y-107295752D01*
X150996998Y-107439013D01*
X150986001Y-107550666D01*
X150986001Y-107550677D01*
X150982325Y-107587999D01*
X150986001Y-107625321D01*
X150986001Y-107778377D01*
X148643345Y-110121034D01*
X148563974Y-110041663D01*
X148394456Y-109928395D01*
X148206098Y-109850374D01*
X148006139Y-109810600D01*
X147802261Y-109810600D01*
X147602302Y-109850374D01*
X147413944Y-109928395D01*
X147244426Y-110041663D01*
X147100263Y-110185826D01*
X146986995Y-110355344D01*
X146933041Y-110485599D01*
X145401038Y-110485599D01*
X145363715Y-110481923D01*
X145326392Y-110485599D01*
X145326383Y-110485599D01*
X145214730Y-110496596D01*
X145071469Y-110540053D01*
X144939440Y-110610625D01*
X144823715Y-110705598D01*
X144799917Y-110734596D01*
X131569003Y-123965511D01*
X131539999Y-123989314D01*
X131497784Y-124040754D01*
X131445026Y-124105039D01*
X131436754Y-124120515D01*
X131374454Y-124237069D01*
X131331014Y-124380275D01*
X131276063Y-124435226D01*
X131162795Y-124604744D01*
X131084774Y-124793102D01*
X131045000Y-124993061D01*
X131045000Y-125196939D01*
X131084774Y-125396898D01*
X131162795Y-125585256D01*
X131259510Y-125730000D01*
X131162795Y-125874744D01*
X131084774Y-126063102D01*
X131045000Y-126263061D01*
X131045000Y-126325198D01*
X130048997Y-127321202D01*
X130019999Y-127345000D01*
X129996201Y-127373998D01*
X129996200Y-127373999D01*
X129925025Y-127460725D01*
X129854453Y-127592755D01*
X129834970Y-127656985D01*
X129810997Y-127736015D01*
X129800000Y-127847668D01*
X129796323Y-127885001D01*
X129800000Y-127922333D01*
X129799999Y-131755678D01*
X129796323Y-131793001D01*
X129799999Y-131830323D01*
X129799999Y-131830333D01*
X129810996Y-131941986D01*
X129853829Y-132083190D01*
X129854453Y-132085247D01*
X129925025Y-132217277D01*
X129958047Y-132257514D01*
X130019998Y-132333002D01*
X130049002Y-132356805D01*
X130373195Y-132680998D01*
X130396998Y-132710002D01*
X130512723Y-132804975D01*
X130639981Y-132872997D01*
X130644752Y-132875547D01*
X130788013Y-132919004D01*
X130936999Y-132933678D01*
X130974332Y-132930001D01*
X134708541Y-132930001D01*
X136571094Y-132956805D01*
X136625226Y-133010937D01*
X136794744Y-133124205D01*
X136983102Y-133202226D01*
X137183061Y-133242000D01*
X137386939Y-133242000D01*
X137586898Y-133202226D01*
X137775256Y-133124205D01*
X137944774Y-133010937D01*
X137999724Y-132955987D01*
X138142932Y-132912546D01*
X138274961Y-132841974D01*
X138390686Y-132747001D01*
X138414488Y-132717999D01*
X138789468Y-132343020D01*
X156911199Y-132343020D01*
X157699192Y-133131014D01*
X157722990Y-133160012D01*
X157838715Y-133254985D01*
X157970744Y-133325557D01*
X158114005Y-133369014D01*
X158225658Y-133380011D01*
X158225666Y-133380011D01*
X158262991Y-133383687D01*
X158300316Y-133380011D01*
X160966667Y-133380011D01*
X161003989Y-133383687D01*
X161041311Y-133380011D01*
X161041322Y-133380011D01*
X161152975Y-133369014D01*
X161296236Y-133325557D01*
X161428265Y-133254985D01*
X161543990Y-133160012D01*
X161567793Y-133131008D01*
X163869802Y-130829000D01*
X163931939Y-130829000D01*
X164131898Y-130789226D01*
X164320256Y-130711205D01*
X164489774Y-130597937D01*
X164499301Y-130588410D01*
X164609744Y-130662205D01*
X164798102Y-130740226D01*
X164998061Y-130780000D01*
X165201939Y-130780000D01*
X165401898Y-130740226D01*
X165590256Y-130662205D01*
X165735000Y-130565490D01*
X165879744Y-130662205D01*
X166068102Y-130740226D01*
X166268061Y-130780000D01*
X166471939Y-130780000D01*
X166671898Y-130740226D01*
X166860256Y-130662205D01*
X167005000Y-130565490D01*
X167149744Y-130662205D01*
X167338102Y-130740226D01*
X167538061Y-130780000D01*
X167741939Y-130780000D01*
X167941898Y-130740226D01*
X168130256Y-130662205D01*
X168275000Y-130565490D01*
X168419744Y-130662205D01*
X168608102Y-130740226D01*
X168808061Y-130780000D01*
X169011939Y-130780000D01*
X169211898Y-130740226D01*
X169400256Y-130662205D01*
X169545000Y-130565490D01*
X169689744Y-130662205D01*
X169878102Y-130740226D01*
X170078061Y-130780000D01*
X170281939Y-130780000D01*
X170481898Y-130740226D01*
X170670256Y-130662205D01*
X170815000Y-130565490D01*
X170959744Y-130662205D01*
X171148102Y-130740226D01*
X171348061Y-130780000D01*
X171551939Y-130780000D01*
X171751898Y-130740226D01*
X171940256Y-130662205D01*
X172085000Y-130565490D01*
X172229744Y-130662205D01*
X172418102Y-130740226D01*
X172618061Y-130780000D01*
X172821939Y-130780000D01*
X173021898Y-130740226D01*
X173210256Y-130662205D01*
X173355000Y-130565490D01*
X173499744Y-130662205D01*
X173688102Y-130740226D01*
X173888061Y-130780000D01*
X174091939Y-130780000D01*
X174291898Y-130740226D01*
X174480256Y-130662205D01*
X174649774Y-130548937D01*
X174793937Y-130404774D01*
X174907205Y-130235256D01*
X174985226Y-130046898D01*
X175025000Y-129846939D01*
X175025000Y-129643061D01*
X174985226Y-129443102D01*
X174907205Y-129254744D01*
X174793937Y-129085226D01*
X174649774Y-128941063D01*
X174480256Y-128827795D01*
X174291898Y-128749774D01*
X174091939Y-128710000D01*
X174029802Y-128710000D01*
X165777080Y-120457279D01*
X165777080Y-114068361D01*
X167557402Y-112288040D01*
X170616121Y-112288038D01*
X170532795Y-112412744D01*
X170454774Y-112601102D01*
X170415000Y-112801061D01*
X170415000Y-112941999D01*
X169471325Y-112941999D01*
X169434002Y-112938323D01*
X169396680Y-112941999D01*
X169396670Y-112941999D01*
X169285017Y-112952996D01*
X169141756Y-112996453D01*
X169009726Y-113067025D01*
X168967149Y-113101968D01*
X168923244Y-113138000D01*
X168861063Y-113138000D01*
X168661104Y-113177774D01*
X168472746Y-113255795D01*
X168303228Y-113369063D01*
X168159065Y-113513226D01*
X168045797Y-113682744D01*
X167967776Y-113871102D01*
X167928002Y-114071061D01*
X167928002Y-114274939D01*
X167967776Y-114474898D01*
X168001370Y-114556000D01*
X167835711Y-114556000D01*
X167791774Y-114512063D01*
X167622256Y-114398795D01*
X167433898Y-114320774D01*
X167233939Y-114281000D01*
X167030061Y-114281000D01*
X166830102Y-114320774D01*
X166641744Y-114398795D01*
X166472226Y-114512063D01*
X166328063Y-114656226D01*
X166214795Y-114825744D01*
X166136774Y-115014102D01*
X166097000Y-115214061D01*
X166097000Y-115417939D01*
X166136774Y-115617898D01*
X166214795Y-115806256D01*
X166328063Y-115975774D01*
X166472226Y-116119937D01*
X166641744Y-116233205D01*
X166779331Y-116290196D01*
X166797174Y-116379898D01*
X166875195Y-116568256D01*
X166988463Y-116737774D01*
X167132626Y-116881937D01*
X167302144Y-116995205D01*
X167490502Y-117073226D01*
X167690461Y-117113000D01*
X167894339Y-117113000D01*
X168094298Y-117073226D01*
X168282656Y-116995205D01*
X168452174Y-116881937D01*
X168496111Y-116838000D01*
X174081088Y-116838000D01*
X174118410Y-116841676D01*
X174155732Y-116838000D01*
X174155743Y-116838000D01*
X174267396Y-116827003D01*
X174410657Y-116783546D01*
X174542686Y-116712974D01*
X174658411Y-116618001D01*
X174682214Y-116588997D01*
X178038760Y-113232451D01*
X178038760Y-132496593D01*
X177683637Y-132496593D01*
X177648760Y-132493158D01*
X177613883Y-132496593D01*
X177509576Y-132506866D01*
X177375740Y-132547465D01*
X177252397Y-132613393D01*
X177144285Y-132702118D01*
X177055560Y-132810230D01*
X176989632Y-132933573D01*
X176949033Y-133067409D01*
X176935325Y-133206593D01*
X176938761Y-133241480D01*
X176938761Y-134112000D01*
X129158760Y-134112000D01*
X129158760Y-133241470D01*
X129162195Y-133206593D01*
X129148487Y-133067409D01*
X129107888Y-132933573D01*
X129041960Y-132810230D01*
X128953235Y-132702118D01*
X128845123Y-132613393D01*
X128721780Y-132547465D01*
X128587944Y-132506866D01*
X128574897Y-132505581D01*
X128448760Y-132493158D01*
X128413883Y-132496593D01*
X128058760Y-132496593D01*
X128058760Y-117864000D01*
X131195928Y-117864000D01*
X131195928Y-118864000D01*
X131208188Y-118988482D01*
X131244498Y-119108180D01*
X131303463Y-119218494D01*
X131382815Y-119315185D01*
X131479506Y-119394537D01*
X131589820Y-119453502D01*
X131709518Y-119489812D01*
X131834000Y-119502072D01*
X132834000Y-119502072D01*
X132958482Y-119489812D01*
X133078180Y-119453502D01*
X133188494Y-119394537D01*
X133285185Y-119315185D01*
X133364537Y-119218494D01*
X133423502Y-119108180D01*
X133459812Y-118988482D01*
X133472072Y-118864000D01*
X133472072Y-117864000D01*
X133459812Y-117739518D01*
X133423502Y-117619820D01*
X133364537Y-117509506D01*
X133285185Y-117412815D01*
X133188494Y-117333463D01*
X133078180Y-117274498D01*
X132958482Y-117238188D01*
X132834000Y-117225928D01*
X131834000Y-117225928D01*
X131709518Y-117238188D01*
X131589820Y-117274498D01*
X131479506Y-117333463D01*
X131382815Y-117412815D01*
X131303463Y-117509506D01*
X131244498Y-117619820D01*
X131208188Y-117739518D01*
X131195928Y-117864000D01*
X128058760Y-117864000D01*
X128058760Y-115578000D01*
X131195928Y-115578000D01*
X131195928Y-116578000D01*
X131208188Y-116702482D01*
X131244498Y-116822180D01*
X131303463Y-116932494D01*
X131382815Y-117029185D01*
X131479506Y-117108537D01*
X131589820Y-117167502D01*
X131709518Y-117203812D01*
X131834000Y-117216072D01*
X132834000Y-117216072D01*
X132958482Y-117203812D01*
X133078180Y-117167502D01*
X133188494Y-117108537D01*
X133285185Y-117029185D01*
X133364537Y-116932494D01*
X133423502Y-116822180D01*
X133459812Y-116702482D01*
X133472072Y-116578000D01*
X133472072Y-115578000D01*
X133459812Y-115453518D01*
X133423502Y-115333820D01*
X133364537Y-115223506D01*
X133285185Y-115126815D01*
X133188494Y-115047463D01*
X133078180Y-114988498D01*
X132958482Y-114952188D01*
X132834000Y-114939928D01*
X131834000Y-114939928D01*
X131709518Y-114952188D01*
X131589820Y-114988498D01*
X131479506Y-115047463D01*
X131382815Y-115126815D01*
X131303463Y-115223506D01*
X131244498Y-115333820D01*
X131208188Y-115453518D01*
X131195928Y-115578000D01*
X128058760Y-115578000D01*
X128058760Y-81516593D01*
X140260000Y-81516593D01*
X140260001Y-88230113D01*
G37*
X140260001Y-88230113D02*
X140256565Y-88265000D01*
X140270273Y-88404184D01*
X140310872Y-88538020D01*
X140376800Y-88661363D01*
X140465525Y-88769475D01*
X140573637Y-88858200D01*
X140696980Y-88924128D01*
X140830816Y-88964727D01*
X140935123Y-88975000D01*
X140970000Y-88978435D01*
X141004877Y-88975000D01*
X157445123Y-88975000D01*
X157480000Y-88978435D01*
X157514877Y-88975000D01*
X157619184Y-88964727D01*
X157753020Y-88924128D01*
X157876363Y-88858200D01*
X157984475Y-88769475D01*
X158073200Y-88661363D01*
X158139128Y-88538020D01*
X158179727Y-88404184D01*
X158193435Y-88265000D01*
X158190000Y-88230123D01*
X158190000Y-81516593D01*
X174038760Y-81516593D01*
X174038761Y-83371706D01*
X174035325Y-83406593D01*
X174049033Y-83545777D01*
X174089632Y-83679613D01*
X174155560Y-83802956D01*
X174244285Y-83911068D01*
X174352397Y-83999793D01*
X174475740Y-84065721D01*
X174609576Y-84106320D01*
X174713883Y-84116593D01*
X174748760Y-84120028D01*
X174783637Y-84116593D01*
X178038761Y-84116593D01*
X178038761Y-84964275D01*
X178019494Y-84948463D01*
X177909180Y-84889498D01*
X177789482Y-84853188D01*
X177665000Y-84840928D01*
X176665000Y-84840928D01*
X176540518Y-84853188D01*
X176420820Y-84889498D01*
X176310506Y-84948463D01*
X176213815Y-85027815D01*
X176134463Y-85124506D01*
X176075498Y-85234820D01*
X176039188Y-85354518D01*
X176026928Y-85479000D01*
X176026928Y-86479000D01*
X176039188Y-86603482D01*
X176075498Y-86723180D01*
X176134463Y-86833494D01*
X176213815Y-86930185D01*
X176310506Y-87009537D01*
X176420820Y-87068502D01*
X176540518Y-87104812D01*
X176665000Y-87117072D01*
X177665000Y-87117072D01*
X177789482Y-87104812D01*
X177909180Y-87068502D01*
X178019494Y-87009537D01*
X178038761Y-86993725D01*
X178038761Y-87504275D01*
X178019494Y-87488463D01*
X177909180Y-87429498D01*
X177789482Y-87393188D01*
X177665000Y-87380928D01*
X176665000Y-87380928D01*
X176540518Y-87393188D01*
X176420820Y-87429498D01*
X176310506Y-87488463D01*
X176213815Y-87567815D01*
X176134463Y-87664506D01*
X176075498Y-87774820D01*
X176039188Y-87894518D01*
X176026928Y-88019000D01*
X176026928Y-89019000D01*
X176039188Y-89143482D01*
X176075498Y-89263180D01*
X176134463Y-89373494D01*
X176213815Y-89470185D01*
X176310506Y-89549537D01*
X176420820Y-89608502D01*
X176540518Y-89644812D01*
X176665000Y-89657072D01*
X177665000Y-89657072D01*
X177789482Y-89644812D01*
X177909180Y-89608502D01*
X178019494Y-89549537D01*
X178038761Y-89533725D01*
X178038761Y-94729501D01*
X177285886Y-93976625D01*
X177333937Y-93928574D01*
X177447205Y-93759056D01*
X177525226Y-93570698D01*
X177565000Y-93370739D01*
X177565000Y-93166861D01*
X177525226Y-92966902D01*
X177447205Y-92778544D01*
X177333937Y-92609026D01*
X177189774Y-92464863D01*
X177020256Y-92351595D01*
X176831898Y-92273574D01*
X176830262Y-92273249D01*
X176851337Y-92252174D01*
X176964605Y-92082656D01*
X177042626Y-91894298D01*
X177082400Y-91694339D01*
X177082400Y-91490461D01*
X177042626Y-91290502D01*
X176964605Y-91102144D01*
X176851337Y-90932626D01*
X176707174Y-90788463D01*
X176537656Y-90675195D01*
X176349298Y-90597174D01*
X176149339Y-90557400D01*
X176087203Y-90557400D01*
X168838804Y-83309003D01*
X168815001Y-83279999D01*
X168699276Y-83185026D01*
X168567247Y-83114454D01*
X168423986Y-83070997D01*
X168312333Y-83060000D01*
X168312322Y-83060000D01*
X168275000Y-83056324D01*
X168237678Y-83060000D01*
X162120711Y-83060000D01*
X162076774Y-83016063D01*
X161907256Y-82902795D01*
X161718898Y-82824774D01*
X161518939Y-82785000D01*
X161315061Y-82785000D01*
X161115102Y-82824774D01*
X160926744Y-82902795D01*
X160757226Y-83016063D01*
X160613063Y-83160226D01*
X160499795Y-83329744D01*
X160421774Y-83518102D01*
X160382000Y-83718061D01*
X160382000Y-83921939D01*
X160421774Y-84121898D01*
X160499795Y-84310256D01*
X160613063Y-84479774D01*
X160657000Y-84523711D01*
X160657001Y-86146797D01*
X154168809Y-92634990D01*
X151060341Y-92634990D01*
X151023008Y-92631313D01*
X150985675Y-92634990D01*
X150874022Y-92645987D01*
X150730761Y-92689444D01*
X150598732Y-92760016D01*
X150483007Y-92854989D01*
X150459209Y-92883987D01*
X147823198Y-95519999D01*
X147761060Y-95519999D01*
X147561101Y-95559773D01*
X147372743Y-95637794D01*
X147203225Y-95751062D01*
X147059062Y-95895225D01*
X146945794Y-96064743D01*
X146867773Y-96253101D01*
X146827999Y-96453060D01*
X146827999Y-96656938D01*
X146867773Y-96856897D01*
X146945794Y-97045255D01*
X147059062Y-97214773D01*
X147203225Y-97358936D01*
X147372743Y-97472204D01*
X147561101Y-97550225D01*
X147761060Y-97589999D01*
X147964938Y-97589999D01*
X148164897Y-97550225D01*
X148353255Y-97472204D01*
X148522773Y-97358936D01*
X148586020Y-97295689D01*
X148607744Y-97310205D01*
X148796102Y-97388226D01*
X148996061Y-97428000D01*
X149199939Y-97428000D01*
X149399898Y-97388226D01*
X149588256Y-97310205D01*
X149757774Y-97196937D01*
X149901937Y-97052774D01*
X150015205Y-96883256D01*
X150093226Y-96694898D01*
X150133000Y-96494939D01*
X150133000Y-96432801D01*
X151960802Y-94605000D01*
X156121289Y-94605000D01*
X156165226Y-94648937D01*
X156334744Y-94762205D01*
X156523102Y-94840226D01*
X156547103Y-94845000D01*
X156523102Y-94849774D01*
X156334744Y-94927795D01*
X156165226Y-95041063D01*
X156121289Y-95085000D01*
X154636323Y-95085000D01*
X154599000Y-95081324D01*
X154561677Y-95085000D01*
X154561667Y-95085000D01*
X154450014Y-95095997D01*
X154306753Y-95139454D01*
X154174723Y-95210026D01*
X154122355Y-95253004D01*
X154058999Y-95304999D01*
X154035201Y-95333997D01*
X152650998Y-96718201D01*
X152622000Y-96741999D01*
X152598202Y-96770997D01*
X152598201Y-96770998D01*
X152527026Y-96857724D01*
X152456454Y-96989754D01*
X152433326Y-97066001D01*
X152412998Y-97133014D01*
X152407856Y-97185226D01*
X152398324Y-97282000D01*
X152402001Y-97319332D01*
X152402000Y-98229289D01*
X152358063Y-98273226D01*
X152244795Y-98442744D01*
X152166774Y-98631102D01*
X152127000Y-98831061D01*
X152127000Y-99034939D01*
X152166774Y-99234898D01*
X152244795Y-99423256D01*
X152275346Y-99468979D01*
X144358781Y-99468979D01*
X142640000Y-97750199D01*
X142640000Y-97688061D01*
X142600226Y-97488102D01*
X142522205Y-97299744D01*
X142408937Y-97130226D01*
X142264774Y-96986063D01*
X142095256Y-96872795D01*
X141906898Y-96794774D01*
X141802459Y-96774000D01*
X141906898Y-96753226D01*
X142095256Y-96675205D01*
X142264774Y-96561937D01*
X142408937Y-96417774D01*
X142522205Y-96248256D01*
X142600226Y-96059898D01*
X142640000Y-95859939D01*
X142640000Y-95656061D01*
X142600226Y-95456102D01*
X142522205Y-95267744D01*
X142408937Y-95098226D01*
X142328869Y-95018158D01*
X142310546Y-94957753D01*
X142239974Y-94825724D01*
X142145001Y-94709999D01*
X142116004Y-94686202D01*
X134004000Y-86574199D01*
X134004000Y-86512061D01*
X133964226Y-86312102D01*
X133886205Y-86123744D01*
X133772937Y-85954226D01*
X133628774Y-85810063D01*
X133459256Y-85696795D01*
X133270898Y-85618774D01*
X133070939Y-85579000D01*
X132867061Y-85579000D01*
X132667102Y-85618774D01*
X132478744Y-85696795D01*
X132309226Y-85810063D01*
X132165063Y-85954226D01*
X132051795Y-86123744D01*
X131973774Y-86312102D01*
X131934000Y-86512061D01*
X131934000Y-86715939D01*
X131973774Y-86915898D01*
X132051795Y-87104256D01*
X132165063Y-87273774D01*
X132309226Y-87417937D01*
X132478744Y-87531205D01*
X132667102Y-87609226D01*
X132867061Y-87649000D01*
X132929199Y-87649000D01*
X140646833Y-95366635D01*
X140609774Y-95456102D01*
X140570000Y-95656061D01*
X140570000Y-95859939D01*
X140609774Y-96059898D01*
X140687795Y-96248256D01*
X140801063Y-96417774D01*
X140945226Y-96561937D01*
X141114744Y-96675205D01*
X141303102Y-96753226D01*
X141407541Y-96774000D01*
X141303102Y-96794774D01*
X141114744Y-96872795D01*
X140945226Y-96986063D01*
X140801063Y-97130226D01*
X140687795Y-97299744D01*
X140609774Y-97488102D01*
X140570000Y-97688061D01*
X140570000Y-97891939D01*
X140609774Y-98091898D01*
X140687795Y-98280256D01*
X140801063Y-98449774D01*
X140945226Y-98593937D01*
X141114744Y-98707205D01*
X141303102Y-98785226D01*
X141407541Y-98806000D01*
X141303102Y-98826774D01*
X141114744Y-98904795D01*
X140945226Y-99018063D01*
X140801063Y-99162226D01*
X140687795Y-99331744D01*
X140609774Y-99520102D01*
X140570000Y-99720061D01*
X140570000Y-99923939D01*
X140609774Y-100123898D01*
X140687795Y-100312256D01*
X140801063Y-100481774D01*
X140945226Y-100625937D01*
X141114744Y-100739205D01*
X141303102Y-100817226D01*
X141407541Y-100838000D01*
X141303102Y-100858774D01*
X141114744Y-100936795D01*
X140945226Y-101050063D01*
X140801063Y-101194226D01*
X140687795Y-101363744D01*
X140609774Y-101552102D01*
X140570000Y-101752061D01*
X140570000Y-101955939D01*
X140609774Y-102155898D01*
X140687795Y-102344256D01*
X140801063Y-102513774D01*
X140945226Y-102657937D01*
X141114744Y-102771205D01*
X141303102Y-102849226D01*
X141503061Y-102889000D01*
X141706939Y-102889000D01*
X141906898Y-102849226D01*
X142095256Y-102771205D01*
X142264774Y-102657937D01*
X142408937Y-102513774D01*
X142522205Y-102344256D01*
X142600226Y-102155898D01*
X142640000Y-101955939D01*
X142640000Y-101893802D01*
X142644803Y-101888999D01*
X155810000Y-101888999D01*
X155810000Y-101955939D01*
X155849774Y-102155898D01*
X155927795Y-102344256D01*
X156041063Y-102513774D01*
X156185226Y-102657937D01*
X156354744Y-102771205D01*
X156543102Y-102849226D01*
X156550159Y-102850630D01*
X152911250Y-106489539D01*
X152805774Y-106384063D01*
X152636256Y-106270795D01*
X152447898Y-106192774D01*
X152247939Y-106153000D01*
X152044061Y-106153000D01*
X151844102Y-106192774D01*
X151655744Y-106270795D01*
X151486226Y-106384063D01*
X151342063Y-106528226D01*
X151228795Y-106697744D01*
X151150774Y-106886102D01*
X151111000Y-107086061D01*
X151111000Y-107163774D01*
X151040455Y-107295752D01*
X150996998Y-107439013D01*
X150986001Y-107550666D01*
X150986001Y-107550677D01*
X150982325Y-107587999D01*
X150986001Y-107625321D01*
X150986001Y-107778377D01*
X148643345Y-110121034D01*
X148563974Y-110041663D01*
X148394456Y-109928395D01*
X148206098Y-109850374D01*
X148006139Y-109810600D01*
X147802261Y-109810600D01*
X147602302Y-109850374D01*
X147413944Y-109928395D01*
X147244426Y-110041663D01*
X147100263Y-110185826D01*
X146986995Y-110355344D01*
X146933041Y-110485599D01*
X145401038Y-110485599D01*
X145363715Y-110481923D01*
X145326392Y-110485599D01*
X145326383Y-110485599D01*
X145214730Y-110496596D01*
X145071469Y-110540053D01*
X144939440Y-110610625D01*
X144823715Y-110705598D01*
X144799917Y-110734596D01*
X131569003Y-123965511D01*
X131539999Y-123989314D01*
X131497784Y-124040754D01*
X131445026Y-124105039D01*
X131436754Y-124120515D01*
X131374454Y-124237069D01*
X131331014Y-124380275D01*
X131276063Y-124435226D01*
X131162795Y-124604744D01*
X131084774Y-124793102D01*
X131045000Y-124993061D01*
X131045000Y-125196939D01*
X131084774Y-125396898D01*
X131162795Y-125585256D01*
X131259510Y-125730000D01*
X131162795Y-125874744D01*
X131084774Y-126063102D01*
X131045000Y-126263061D01*
X131045000Y-126325198D01*
X130048997Y-127321202D01*
X130019999Y-127345000D01*
X129996201Y-127373998D01*
X129996200Y-127373999D01*
X129925025Y-127460725D01*
X129854453Y-127592755D01*
X129834970Y-127656985D01*
X129810997Y-127736015D01*
X129800000Y-127847668D01*
X129796323Y-127885001D01*
X129800000Y-127922333D01*
X129799999Y-131755678D01*
X129796323Y-131793001D01*
X129799999Y-131830323D01*
X129799999Y-131830333D01*
X129810996Y-131941986D01*
X129853829Y-132083190D01*
X129854453Y-132085247D01*
X129925025Y-132217277D01*
X129958047Y-132257514D01*
X130019998Y-132333002D01*
X130049002Y-132356805D01*
X130373195Y-132680998D01*
X130396998Y-132710002D01*
X130512723Y-132804975D01*
X130639981Y-132872997D01*
X130644752Y-132875547D01*
X130788013Y-132919004D01*
X130936999Y-132933678D01*
X130974332Y-132930001D01*
X134708541Y-132930001D01*
X136571094Y-132956805D01*
X136625226Y-133010937D01*
X136794744Y-133124205D01*
X136983102Y-133202226D01*
X137183061Y-133242000D01*
X137386939Y-133242000D01*
X137586898Y-133202226D01*
X137775256Y-133124205D01*
X137944774Y-133010937D01*
X137999724Y-132955987D01*
X138142932Y-132912546D01*
X138274961Y-132841974D01*
X138390686Y-132747001D01*
X138414488Y-132717999D01*
X138789468Y-132343020D01*
X156911199Y-132343020D01*
X157699192Y-133131014D01*
X157722990Y-133160012D01*
X157838715Y-133254985D01*
X157970744Y-133325557D01*
X158114005Y-133369014D01*
X158225658Y-133380011D01*
X158225666Y-133380011D01*
X158262991Y-133383687D01*
X158300316Y-133380011D01*
X160966667Y-133380011D01*
X161003989Y-133383687D01*
X161041311Y-133380011D01*
X161041322Y-133380011D01*
X161152975Y-133369014D01*
X161296236Y-133325557D01*
X161428265Y-133254985D01*
X161543990Y-133160012D01*
X161567793Y-133131008D01*
X163869802Y-130829000D01*
X163931939Y-130829000D01*
X164131898Y-130789226D01*
X164320256Y-130711205D01*
X164489774Y-130597937D01*
X164499301Y-130588410D01*
X164609744Y-130662205D01*
X164798102Y-130740226D01*
X164998061Y-130780000D01*
X165201939Y-130780000D01*
X165401898Y-130740226D01*
X165590256Y-130662205D01*
X165735000Y-130565490D01*
X165879744Y-130662205D01*
X166068102Y-130740226D01*
X166268061Y-130780000D01*
X166471939Y-130780000D01*
X166671898Y-130740226D01*
X166860256Y-130662205D01*
X167005000Y-130565490D01*
X167149744Y-130662205D01*
X167338102Y-130740226D01*
X167538061Y-130780000D01*
X167741939Y-130780000D01*
X167941898Y-130740226D01*
X168130256Y-130662205D01*
X168275000Y-130565490D01*
X168419744Y-130662205D01*
X168608102Y-130740226D01*
X168808061Y-130780000D01*
X169011939Y-130780000D01*
X169211898Y-130740226D01*
X169400256Y-130662205D01*
X169545000Y-130565490D01*
X169689744Y-130662205D01*
X169878102Y-130740226D01*
X170078061Y-130780000D01*
X170281939Y-130780000D01*
X170481898Y-130740226D01*
X170670256Y-130662205D01*
X170815000Y-130565490D01*
X170959744Y-130662205D01*
X171148102Y-130740226D01*
X171348061Y-130780000D01*
X171551939Y-130780000D01*
X171751898Y-130740226D01*
X171940256Y-130662205D01*
X172085000Y-130565490D01*
X172229744Y-130662205D01*
X172418102Y-130740226D01*
X172618061Y-130780000D01*
X172821939Y-130780000D01*
X173021898Y-130740226D01*
X173210256Y-130662205D01*
X173355000Y-130565490D01*
X173499744Y-130662205D01*
X173688102Y-130740226D01*
X173888061Y-130780000D01*
X174091939Y-130780000D01*
X174291898Y-130740226D01*
X174480256Y-130662205D01*
X174649774Y-130548937D01*
X174793937Y-130404774D01*
X174907205Y-130235256D01*
X174985226Y-130046898D01*
X175025000Y-129846939D01*
X175025000Y-129643061D01*
X174985226Y-129443102D01*
X174907205Y-129254744D01*
X174793937Y-129085226D01*
X174649774Y-128941063D01*
X174480256Y-128827795D01*
X174291898Y-128749774D01*
X174091939Y-128710000D01*
X174029802Y-128710000D01*
X165777080Y-120457279D01*
X165777080Y-114068361D01*
X167557402Y-112288040D01*
X170616121Y-112288038D01*
X170532795Y-112412744D01*
X170454774Y-112601102D01*
X170415000Y-112801061D01*
X170415000Y-112941999D01*
X169471325Y-112941999D01*
X169434002Y-112938323D01*
X169396680Y-112941999D01*
X169396670Y-112941999D01*
X169285017Y-112952996D01*
X169141756Y-112996453D01*
X169009726Y-113067025D01*
X168967149Y-113101968D01*
X168923244Y-113138000D01*
X168861063Y-113138000D01*
X168661104Y-113177774D01*
X168472746Y-113255795D01*
X168303228Y-113369063D01*
X168159065Y-113513226D01*
X168045797Y-113682744D01*
X167967776Y-113871102D01*
X167928002Y-114071061D01*
X167928002Y-114274939D01*
X167967776Y-114474898D01*
X168001370Y-114556000D01*
X167835711Y-114556000D01*
X167791774Y-114512063D01*
X167622256Y-114398795D01*
X167433898Y-114320774D01*
X167233939Y-114281000D01*
X167030061Y-114281000D01*
X166830102Y-114320774D01*
X166641744Y-114398795D01*
X166472226Y-114512063D01*
X166328063Y-114656226D01*
X166214795Y-114825744D01*
X166136774Y-115014102D01*
X166097000Y-115214061D01*
X166097000Y-115417939D01*
X166136774Y-115617898D01*
X166214795Y-115806256D01*
X166328063Y-115975774D01*
X166472226Y-116119937D01*
X166641744Y-116233205D01*
X166779331Y-116290196D01*
X166797174Y-116379898D01*
X166875195Y-116568256D01*
X166988463Y-116737774D01*
X167132626Y-116881937D01*
X167302144Y-116995205D01*
X167490502Y-117073226D01*
X167690461Y-117113000D01*
X167894339Y-117113000D01*
X168094298Y-117073226D01*
X168282656Y-116995205D01*
X168452174Y-116881937D01*
X168496111Y-116838000D01*
X174081088Y-116838000D01*
X174118410Y-116841676D01*
X174155732Y-116838000D01*
X174155743Y-116838000D01*
X174267396Y-116827003D01*
X174410657Y-116783546D01*
X174542686Y-116712974D01*
X174658411Y-116618001D01*
X174682214Y-116588997D01*
X178038760Y-113232451D01*
X178038760Y-132496593D01*
X177683637Y-132496593D01*
X177648760Y-132493158D01*
X177613883Y-132496593D01*
X177509576Y-132506866D01*
X177375740Y-132547465D01*
X177252397Y-132613393D01*
X177144285Y-132702118D01*
X177055560Y-132810230D01*
X176989632Y-132933573D01*
X176949033Y-133067409D01*
X176935325Y-133206593D01*
X176938761Y-133241480D01*
X176938761Y-134112000D01*
X129158760Y-134112000D01*
X129158760Y-133241470D01*
X129162195Y-133206593D01*
X129148487Y-133067409D01*
X129107888Y-132933573D01*
X129041960Y-132810230D01*
X128953235Y-132702118D01*
X128845123Y-132613393D01*
X128721780Y-132547465D01*
X128587944Y-132506866D01*
X128574897Y-132505581D01*
X128448760Y-132493158D01*
X128413883Y-132496593D01*
X128058760Y-132496593D01*
X128058760Y-117864000D01*
X131195928Y-117864000D01*
X131195928Y-118864000D01*
X131208188Y-118988482D01*
X131244498Y-119108180D01*
X131303463Y-119218494D01*
X131382815Y-119315185D01*
X131479506Y-119394537D01*
X131589820Y-119453502D01*
X131709518Y-119489812D01*
X131834000Y-119502072D01*
X132834000Y-119502072D01*
X132958482Y-119489812D01*
X133078180Y-119453502D01*
X133188494Y-119394537D01*
X133285185Y-119315185D01*
X133364537Y-119218494D01*
X133423502Y-119108180D01*
X133459812Y-118988482D01*
X133472072Y-118864000D01*
X133472072Y-117864000D01*
X133459812Y-117739518D01*
X133423502Y-117619820D01*
X133364537Y-117509506D01*
X133285185Y-117412815D01*
X133188494Y-117333463D01*
X133078180Y-117274498D01*
X132958482Y-117238188D01*
X132834000Y-117225928D01*
X131834000Y-117225928D01*
X131709518Y-117238188D01*
X131589820Y-117274498D01*
X131479506Y-117333463D01*
X131382815Y-117412815D01*
X131303463Y-117509506D01*
X131244498Y-117619820D01*
X131208188Y-117739518D01*
X131195928Y-117864000D01*
X128058760Y-117864000D01*
X128058760Y-115578000D01*
X131195928Y-115578000D01*
X131195928Y-116578000D01*
X131208188Y-116702482D01*
X131244498Y-116822180D01*
X131303463Y-116932494D01*
X131382815Y-117029185D01*
X131479506Y-117108537D01*
X131589820Y-117167502D01*
X131709518Y-117203812D01*
X131834000Y-117216072D01*
X132834000Y-117216072D01*
X132958482Y-117203812D01*
X133078180Y-117167502D01*
X133188494Y-117108537D01*
X133285185Y-117029185D01*
X133364537Y-116932494D01*
X133423502Y-116822180D01*
X133459812Y-116702482D01*
X133472072Y-116578000D01*
X133472072Y-115578000D01*
X133459812Y-115453518D01*
X133423502Y-115333820D01*
X133364537Y-115223506D01*
X133285185Y-115126815D01*
X133188494Y-115047463D01*
X133078180Y-114988498D01*
X132958482Y-114952188D01*
X132834000Y-114939928D01*
X131834000Y-114939928D01*
X131709518Y-114952188D01*
X131589820Y-114988498D01*
X131479506Y-115047463D01*
X131382815Y-115126815D01*
X131303463Y-115223506D01*
X131244498Y-115333820D01*
X131208188Y-115453518D01*
X131195928Y-115578000D01*
X128058760Y-115578000D01*
X128058760Y-81516593D01*
X140260000Y-81516593D01*
X140260001Y-88230113D01*
G36*
X148900000Y-127012262D02*
G01*
X149058906Y-127811135D01*
X149370611Y-128563657D01*
X149823136Y-129240909D01*
X150399091Y-129816864D01*
X150557935Y-129923000D01*
X146995610Y-129923000D01*
X147021500Y-129792839D01*
X147021500Y-129588961D01*
X147021150Y-129587202D01*
X147035503Y-129539886D01*
X147046500Y-129428233D01*
X147046500Y-129428224D01*
X147050176Y-129390901D01*
X147046500Y-129353578D01*
X147046500Y-129235824D01*
X147050176Y-129198501D01*
X147046500Y-129161178D01*
X147046500Y-129161170D01*
X147035503Y-129049517D01*
X147003527Y-128944104D01*
X146992046Y-128906255D01*
X146921474Y-128774225D01*
X146850299Y-128687499D01*
X146826501Y-128658501D01*
X146797503Y-128634703D01*
X146430800Y-128268000D01*
X147155678Y-128268000D01*
X147193000Y-128271676D01*
X147230322Y-128268000D01*
X147230333Y-128268000D01*
X147341986Y-128257003D01*
X147485247Y-128213546D01*
X147617276Y-128142974D01*
X147733001Y-128048001D01*
X147756804Y-128018997D01*
X148900000Y-126875802D01*
X148900000Y-127012262D01*
G37*
X148900000Y-127012262D02*
X149058906Y-127811135D01*
X149370611Y-128563657D01*
X149823136Y-129240909D01*
X150399091Y-129816864D01*
X150557935Y-129923000D01*
X146995610Y-129923000D01*
X147021500Y-129792839D01*
X147021500Y-129588961D01*
X147021150Y-129587202D01*
X147035503Y-129539886D01*
X147046500Y-129428233D01*
X147046500Y-129428224D01*
X147050176Y-129390901D01*
X147046500Y-129353578D01*
X147046500Y-129235824D01*
X147050176Y-129198501D01*
X147046500Y-129161178D01*
X147046500Y-129161170D01*
X147035503Y-129049517D01*
X147003527Y-128944104D01*
X146992046Y-128906255D01*
X146921474Y-128774225D01*
X146850299Y-128687499D01*
X146826501Y-128658501D01*
X146797503Y-128634703D01*
X146430800Y-128268000D01*
X147155678Y-128268000D01*
X147193000Y-128271676D01*
X147230322Y-128268000D01*
X147230333Y-128268000D01*
X147341986Y-128257003D01*
X147485247Y-128213546D01*
X147617276Y-128142974D01*
X147733001Y-128048001D01*
X147756804Y-128018997D01*
X148900000Y-126875802D01*
X148900000Y-127012262D01*
G36*
X160657000Y-127343678D02*
G01*
X160653324Y-127381000D01*
X160657000Y-127418322D01*
X160657000Y-127418332D01*
X160667997Y-127529985D01*
X160705616Y-127654000D01*
X160711454Y-127673246D01*
X160743705Y-127733584D01*
X160613063Y-127864226D01*
X160499795Y-128033744D01*
X160421774Y-128222102D01*
X160382000Y-128422061D01*
X160382000Y-128625939D01*
X160421774Y-128825898D01*
X160484156Y-128976500D01*
X160299061Y-128976500D01*
X160099102Y-129016274D01*
X159910744Y-129094295D01*
X159741226Y-129207563D01*
X159697289Y-129251500D01*
X159663302Y-129251500D01*
X158367000Y-127955199D01*
X158367000Y-125553320D01*
X158370676Y-125515997D01*
X158367000Y-125478674D01*
X158367000Y-125478665D01*
X158356003Y-125367012D01*
X158312546Y-125223751D01*
X158241974Y-125091721D01*
X158170799Y-125004995D01*
X158147001Y-124975997D01*
X158118004Y-124952200D01*
X155794001Y-122628198D01*
X155794001Y-120084053D01*
X155854061Y-120096000D01*
X156057939Y-120096000D01*
X156257898Y-120056226D01*
X156446256Y-119978205D01*
X156615774Y-119864937D01*
X156659711Y-119821000D01*
X157380678Y-119821000D01*
X157418000Y-119824676D01*
X157455322Y-119821000D01*
X157455333Y-119821000D01*
X157566986Y-119810003D01*
X157710247Y-119766546D01*
X157728225Y-119756936D01*
X157836226Y-119864937D01*
X158005744Y-119978205D01*
X158194102Y-120056226D01*
X158394061Y-120096000D01*
X158597939Y-120096000D01*
X158797898Y-120056226D01*
X158986256Y-119978205D01*
X159155774Y-119864937D01*
X159299937Y-119720774D01*
X159413205Y-119551256D01*
X159491226Y-119362898D01*
X159531000Y-119162939D01*
X159531000Y-119100801D01*
X160657000Y-117974801D01*
X160657000Y-127343678D01*
G37*
X160657000Y-127343678D02*
X160653324Y-127381000D01*
X160657000Y-127418322D01*
X160657000Y-127418332D01*
X160667997Y-127529985D01*
X160705616Y-127654000D01*
X160711454Y-127673246D01*
X160743705Y-127733584D01*
X160613063Y-127864226D01*
X160499795Y-128033744D01*
X160421774Y-128222102D01*
X160382000Y-128422061D01*
X160382000Y-128625939D01*
X160421774Y-128825898D01*
X160484156Y-128976500D01*
X160299061Y-128976500D01*
X160099102Y-129016274D01*
X159910744Y-129094295D01*
X159741226Y-129207563D01*
X159697289Y-129251500D01*
X159663302Y-129251500D01*
X158367000Y-127955199D01*
X158367000Y-125553320D01*
X158370676Y-125515997D01*
X158367000Y-125478674D01*
X158367000Y-125478665D01*
X158356003Y-125367012D01*
X158312546Y-125223751D01*
X158241974Y-125091721D01*
X158170799Y-125004995D01*
X158147001Y-124975997D01*
X158118004Y-124952200D01*
X155794001Y-122628198D01*
X155794001Y-120084053D01*
X155854061Y-120096000D01*
X156057939Y-120096000D01*
X156257898Y-120056226D01*
X156446256Y-119978205D01*
X156615774Y-119864937D01*
X156659711Y-119821000D01*
X157380678Y-119821000D01*
X157418000Y-119824676D01*
X157455322Y-119821000D01*
X157455333Y-119821000D01*
X157566986Y-119810003D01*
X157710247Y-119766546D01*
X157728225Y-119756936D01*
X157836226Y-119864937D01*
X158005744Y-119978205D01*
X158194102Y-120056226D01*
X158394061Y-120096000D01*
X158597939Y-120096000D01*
X158797898Y-120056226D01*
X158986256Y-119978205D01*
X159155774Y-119864937D01*
X159299937Y-119720774D01*
X159413205Y-119551256D01*
X159491226Y-119362898D01*
X159531000Y-119162939D01*
X159531000Y-119100801D01*
X160657000Y-117974801D01*
X160657000Y-127343678D01*
G36*
X142369000Y-120011883D02*
G01*
X137904630Y-124476253D01*
X138012205Y-124315256D01*
X138090226Y-124126898D01*
X138130000Y-123926939D01*
X138130000Y-123723061D01*
X138090226Y-123523102D01*
X138012205Y-123334744D01*
X137898937Y-123165226D01*
X137754774Y-123021063D01*
X137585256Y-122907795D01*
X137396898Y-122829774D01*
X137196939Y-122790000D01*
X136993061Y-122790000D01*
X136793102Y-122829774D01*
X136604744Y-122907795D01*
X136435226Y-123021063D01*
X136291063Y-123165226D01*
X136177795Y-123334744D01*
X136099774Y-123523102D01*
X136060000Y-123723061D01*
X136060000Y-123785198D01*
X135510199Y-124335000D01*
X135235321Y-124335000D01*
X135197998Y-124331324D01*
X135160675Y-124335000D01*
X135160665Y-124335000D01*
X135049012Y-124345997D01*
X134905751Y-124389454D01*
X134773722Y-124460026D01*
X134657997Y-124554999D01*
X134634199Y-124583997D01*
X133088477Y-126129719D01*
X133075226Y-126063102D01*
X132997205Y-125874744D01*
X132900490Y-125730000D01*
X132997205Y-125585256D01*
X133075226Y-125396898D01*
X133115000Y-125196939D01*
X133115000Y-124993061D01*
X133075226Y-124793102D01*
X133021271Y-124662845D01*
X142369001Y-115315116D01*
X142369000Y-120011883D01*
G37*
X142369000Y-120011883D02*
X137904630Y-124476253D01*
X138012205Y-124315256D01*
X138090226Y-124126898D01*
X138130000Y-123926939D01*
X138130000Y-123723061D01*
X138090226Y-123523102D01*
X138012205Y-123334744D01*
X137898937Y-123165226D01*
X137754774Y-123021063D01*
X137585256Y-122907795D01*
X137396898Y-122829774D01*
X137196939Y-122790000D01*
X136993061Y-122790000D01*
X136793102Y-122829774D01*
X136604744Y-122907795D01*
X136435226Y-123021063D01*
X136291063Y-123165226D01*
X136177795Y-123334744D01*
X136099774Y-123523102D01*
X136060000Y-123723061D01*
X136060000Y-123785198D01*
X135510199Y-124335000D01*
X135235321Y-124335000D01*
X135197998Y-124331324D01*
X135160675Y-124335000D01*
X135160665Y-124335000D01*
X135049012Y-124345997D01*
X134905751Y-124389454D01*
X134773722Y-124460026D01*
X134657997Y-124554999D01*
X134634199Y-124583997D01*
X133088477Y-126129719D01*
X133075226Y-126063102D01*
X132997205Y-125874744D01*
X132900490Y-125730000D01*
X132997205Y-125585256D01*
X133075226Y-125396898D01*
X133115000Y-125196939D01*
X133115000Y-124993061D01*
X133075226Y-124793102D01*
X133021271Y-124662845D01*
X142369001Y-115315116D01*
X142369000Y-120011883D01*
G36*
X154274002Y-122642520D02*
G01*
X154241135Y-122628906D01*
X153442262Y-122470000D01*
X152627738Y-122470000D01*
X152076854Y-122579578D01*
X152082000Y-122527333D01*
X152082000Y-122527324D01*
X152085676Y-122490001D01*
X152082000Y-122452678D01*
X152082000Y-117789801D01*
X154274001Y-115597801D01*
X154274002Y-122642520D01*
G37*
X154274002Y-122642520D02*
X154241135Y-122628906D01*
X153442262Y-122470000D01*
X152627738Y-122470000D01*
X152076854Y-122579578D01*
X152082000Y-122527333D01*
X152082000Y-122527324D01*
X152085676Y-122490001D01*
X152082000Y-122452678D01*
X152082000Y-117789801D01*
X154274001Y-115597801D01*
X154274002Y-122642520D01*
G36*
X159756980Y-111162332D02*
G01*
X159756981Y-111162342D01*
X159756980Y-115465738D01*
X159753444Y-115472353D01*
X159709987Y-115615614D01*
X159701400Y-115702798D01*
X157103199Y-118301000D01*
X156659711Y-118301000D01*
X156615774Y-118257063D01*
X156446256Y-118143795D01*
X156257898Y-118065774D01*
X156057939Y-118026000D01*
X155854061Y-118026000D01*
X155794001Y-118037947D01*
X155794001Y-115150802D01*
X155921998Y-115022805D01*
X155951002Y-114999002D01*
X156045975Y-114883277D01*
X156116547Y-114751248D01*
X156160004Y-114607987D01*
X156171001Y-114496334D01*
X156174678Y-114459001D01*
X156171001Y-114421668D01*
X156171001Y-113800332D01*
X156174678Y-113762999D01*
X156160004Y-113614013D01*
X156116547Y-113470752D01*
X156108646Y-113455971D01*
X156045975Y-113338723D01*
X155951002Y-113222998D01*
X155921999Y-113199196D01*
X155597805Y-112875002D01*
X155574002Y-112845998D01*
X155458277Y-112751025D01*
X155326248Y-112680453D01*
X155182987Y-112636996D01*
X155071334Y-112625999D01*
X155071323Y-112625999D01*
X155034001Y-112622323D01*
X154996679Y-112625999D01*
X154710800Y-112625999D01*
X158209544Y-109127255D01*
X158217226Y-109134937D01*
X158386744Y-109248205D01*
X158575102Y-109326226D01*
X158775061Y-109366000D01*
X158978939Y-109366000D01*
X159178898Y-109326226D01*
X159367256Y-109248205D01*
X159536774Y-109134937D01*
X159680937Y-108990774D01*
X159756981Y-108876966D01*
X159756980Y-111162332D01*
G37*
X159756980Y-111162332D02*
X159756981Y-111162342D01*
X159756980Y-115465738D01*
X159753444Y-115472353D01*
X159709987Y-115615614D01*
X159701400Y-115702798D01*
X157103199Y-118301000D01*
X156659711Y-118301000D01*
X156615774Y-118257063D01*
X156446256Y-118143795D01*
X156257898Y-118065774D01*
X156057939Y-118026000D01*
X155854061Y-118026000D01*
X155794001Y-118037947D01*
X155794001Y-115150802D01*
X155921998Y-115022805D01*
X155951002Y-114999002D01*
X156045975Y-114883277D01*
X156116547Y-114751248D01*
X156160004Y-114607987D01*
X156171001Y-114496334D01*
X156174678Y-114459001D01*
X156171001Y-114421668D01*
X156171001Y-113800332D01*
X156174678Y-113762999D01*
X156160004Y-113614013D01*
X156116547Y-113470752D01*
X156108646Y-113455971D01*
X156045975Y-113338723D01*
X155951002Y-113222998D01*
X155921999Y-113199196D01*
X155597805Y-112875002D01*
X155574002Y-112845998D01*
X155458277Y-112751025D01*
X155326248Y-112680453D01*
X155182987Y-112636996D01*
X155071334Y-112625999D01*
X155071323Y-112625999D01*
X155034001Y-112622323D01*
X154996679Y-112625999D01*
X154710800Y-112625999D01*
X158209544Y-109127255D01*
X158217226Y-109134937D01*
X158386744Y-109248205D01*
X158575102Y-109326226D01*
X158775061Y-109366000D01*
X158978939Y-109366000D01*
X159178898Y-109326226D01*
X159367256Y-109248205D01*
X159536774Y-109134937D01*
X159680937Y-108990774D01*
X159756981Y-108876966D01*
X159756980Y-111162332D01*
G36*
X173203226Y-102403937D02*
G01*
X173372744Y-102517205D01*
X173561102Y-102595226D01*
X173761061Y-102635000D01*
X173964939Y-102635000D01*
X174164898Y-102595226D01*
X174353256Y-102517205D01*
X174500001Y-102419154D01*
X174500001Y-103320846D01*
X174353256Y-103222795D01*
X174164898Y-103144774D01*
X173964939Y-103105000D01*
X173761061Y-103105000D01*
X173561102Y-103144774D01*
X173372744Y-103222795D01*
X173203226Y-103336063D01*
X173059063Y-103480226D01*
X172945795Y-103649744D01*
X172867774Y-103838102D01*
X172828000Y-104038061D01*
X172828000Y-104100198D01*
X171135199Y-105793000D01*
X166819711Y-105793000D01*
X166775774Y-105749063D01*
X166606256Y-105635795D01*
X166417898Y-105557774D01*
X166217939Y-105518000D01*
X166014061Y-105518000D01*
X165814102Y-105557774D01*
X165625744Y-105635795D01*
X165456226Y-105749063D01*
X165312063Y-105893226D01*
X165198795Y-106062744D01*
X165120774Y-106251102D01*
X165081000Y-106451061D01*
X165081000Y-106654939D01*
X165120774Y-106854898D01*
X165198795Y-107043256D01*
X165312063Y-107212774D01*
X165456226Y-107356937D01*
X165572982Y-107434950D01*
X165433102Y-107462774D01*
X165244744Y-107540795D01*
X165100000Y-107637510D01*
X164955256Y-107540795D01*
X164766898Y-107462774D01*
X164566939Y-107423000D01*
X164363061Y-107423000D01*
X164163102Y-107462774D01*
X163974744Y-107540795D01*
X163805226Y-107654063D01*
X163661063Y-107798226D01*
X163547795Y-107967744D01*
X163469774Y-108156102D01*
X163430000Y-108356061D01*
X163430000Y-108418197D01*
X162627010Y-109221188D01*
X162627010Y-107814791D01*
X162726801Y-107715000D01*
X162788939Y-107715000D01*
X162988898Y-107675226D01*
X163177256Y-107597205D01*
X163346774Y-107483937D01*
X163490937Y-107339774D01*
X163604205Y-107170256D01*
X163682226Y-106981898D01*
X163722000Y-106781939D01*
X163722000Y-106578061D01*
X163682226Y-106378102D01*
X163604205Y-106189744D01*
X163591013Y-106170000D01*
X163634289Y-106170000D01*
X163678226Y-106213937D01*
X163847744Y-106327205D01*
X164036102Y-106405226D01*
X164236061Y-106445000D01*
X164439939Y-106445000D01*
X164639898Y-106405226D01*
X164828256Y-106327205D01*
X164997774Y-106213937D01*
X165141937Y-106069774D01*
X165255205Y-105900256D01*
X165333226Y-105711898D01*
X165373000Y-105511939D01*
X165373000Y-105308061D01*
X165333226Y-105108102D01*
X165255205Y-104919744D01*
X165141937Y-104750226D01*
X164997774Y-104606063D01*
X164856873Y-104511916D01*
X164998061Y-104540000D01*
X165201939Y-104540000D01*
X165401898Y-104500226D01*
X165590256Y-104422205D01*
X165759774Y-104308937D01*
X165814724Y-104253987D01*
X165957932Y-104210546D01*
X166089961Y-104139974D01*
X166205686Y-104045001D01*
X166229489Y-104015997D01*
X167885487Y-102360000D01*
X173159289Y-102360000D01*
X173203226Y-102403937D01*
G37*
X173203226Y-102403937D02*
X173372744Y-102517205D01*
X173561102Y-102595226D01*
X173761061Y-102635000D01*
X173964939Y-102635000D01*
X174164898Y-102595226D01*
X174353256Y-102517205D01*
X174500001Y-102419154D01*
X174500001Y-103320846D01*
X174353256Y-103222795D01*
X174164898Y-103144774D01*
X173964939Y-103105000D01*
X173761061Y-103105000D01*
X173561102Y-103144774D01*
X173372744Y-103222795D01*
X173203226Y-103336063D01*
X173059063Y-103480226D01*
X172945795Y-103649744D01*
X172867774Y-103838102D01*
X172828000Y-104038061D01*
X172828000Y-104100198D01*
X171135199Y-105793000D01*
X166819711Y-105793000D01*
X166775774Y-105749063D01*
X166606256Y-105635795D01*
X166417898Y-105557774D01*
X166217939Y-105518000D01*
X166014061Y-105518000D01*
X165814102Y-105557774D01*
X165625744Y-105635795D01*
X165456226Y-105749063D01*
X165312063Y-105893226D01*
X165198795Y-106062744D01*
X165120774Y-106251102D01*
X165081000Y-106451061D01*
X165081000Y-106654939D01*
X165120774Y-106854898D01*
X165198795Y-107043256D01*
X165312063Y-107212774D01*
X165456226Y-107356937D01*
X165572982Y-107434950D01*
X165433102Y-107462774D01*
X165244744Y-107540795D01*
X165100000Y-107637510D01*
X164955256Y-107540795D01*
X164766898Y-107462774D01*
X164566939Y-107423000D01*
X164363061Y-107423000D01*
X164163102Y-107462774D01*
X163974744Y-107540795D01*
X163805226Y-107654063D01*
X163661063Y-107798226D01*
X163547795Y-107967744D01*
X163469774Y-108156102D01*
X163430000Y-108356061D01*
X163430000Y-108418197D01*
X162627010Y-109221188D01*
X162627010Y-107814791D01*
X162726801Y-107715000D01*
X162788939Y-107715000D01*
X162988898Y-107675226D01*
X163177256Y-107597205D01*
X163346774Y-107483937D01*
X163490937Y-107339774D01*
X163604205Y-107170256D01*
X163682226Y-106981898D01*
X163722000Y-106781939D01*
X163722000Y-106578061D01*
X163682226Y-106378102D01*
X163604205Y-106189744D01*
X163591013Y-106170000D01*
X163634289Y-106170000D01*
X163678226Y-106213937D01*
X163847744Y-106327205D01*
X164036102Y-106405226D01*
X164236061Y-106445000D01*
X164439939Y-106445000D01*
X164639898Y-106405226D01*
X164828256Y-106327205D01*
X164997774Y-106213937D01*
X165141937Y-106069774D01*
X165255205Y-105900256D01*
X165333226Y-105711898D01*
X165373000Y-105511939D01*
X165373000Y-105308061D01*
X165333226Y-105108102D01*
X165255205Y-104919744D01*
X165141937Y-104750226D01*
X164997774Y-104606063D01*
X164856873Y-104511916D01*
X164998061Y-104540000D01*
X165201939Y-104540000D01*
X165401898Y-104500226D01*
X165590256Y-104422205D01*
X165759774Y-104308937D01*
X165814724Y-104253987D01*
X165957932Y-104210546D01*
X166089961Y-104139974D01*
X166205686Y-104045001D01*
X166229489Y-104015997D01*
X167885487Y-102360000D01*
X173159289Y-102360000D01*
X173203226Y-102403937D01*
G36*
X166314200Y-97031002D02*
G01*
X166337999Y-97060001D01*
X166366997Y-97083799D01*
X166453723Y-97154974D01*
X166559389Y-97211454D01*
X166585753Y-97225546D01*
X166729014Y-97269003D01*
X166840667Y-97280000D01*
X166840676Y-97280000D01*
X166877999Y-97283676D01*
X166915322Y-97280000D01*
X173159289Y-97280000D01*
X173203226Y-97323937D01*
X173372744Y-97437205D01*
X173561102Y-97515226D01*
X173761061Y-97555000D01*
X173964939Y-97555000D01*
X174164898Y-97515226D01*
X174353256Y-97437205D01*
X174500001Y-97339153D01*
X174500001Y-100780846D01*
X174353256Y-100682795D01*
X174164898Y-100604774D01*
X173964939Y-100565000D01*
X173761061Y-100565000D01*
X173561102Y-100604774D01*
X173372744Y-100682795D01*
X173203226Y-100796063D01*
X173159289Y-100840000D01*
X167608008Y-100840000D01*
X167570685Y-100836324D01*
X167533362Y-100840000D01*
X167533352Y-100840000D01*
X167421699Y-100850997D01*
X167278438Y-100894454D01*
X167146409Y-100965026D01*
X167030684Y-101059999D01*
X167006886Y-101088997D01*
X165532155Y-102563729D01*
X165401898Y-102509774D01*
X165201939Y-102470000D01*
X165072021Y-102470000D01*
X165072021Y-98182346D01*
X165075697Y-98145021D01*
X165072021Y-98107696D01*
X165072021Y-98107688D01*
X165061024Y-97996035D01*
X165017567Y-97852774D01*
X164946995Y-97720745D01*
X164852022Y-97605020D01*
X164823024Y-97581222D01*
X163729075Y-96487274D01*
X163836277Y-96429973D01*
X163952002Y-96335000D01*
X163975804Y-96305997D01*
X164504802Y-95777000D01*
X164566939Y-95777000D01*
X164766898Y-95737226D01*
X164946168Y-95662969D01*
X166314200Y-97031002D01*
G37*
X166314200Y-97031002D02*
X166337999Y-97060001D01*
X166366997Y-97083799D01*
X166453723Y-97154974D01*
X166559389Y-97211454D01*
X166585753Y-97225546D01*
X166729014Y-97269003D01*
X166840667Y-97280000D01*
X166840676Y-97280000D01*
X166877999Y-97283676D01*
X166915322Y-97280000D01*
X173159289Y-97280000D01*
X173203226Y-97323937D01*
X173372744Y-97437205D01*
X173561102Y-97515226D01*
X173761061Y-97555000D01*
X173964939Y-97555000D01*
X174164898Y-97515226D01*
X174353256Y-97437205D01*
X174500001Y-97339153D01*
X174500001Y-100780846D01*
X174353256Y-100682795D01*
X174164898Y-100604774D01*
X173964939Y-100565000D01*
X173761061Y-100565000D01*
X173561102Y-100604774D01*
X173372744Y-100682795D01*
X173203226Y-100796063D01*
X173159289Y-100840000D01*
X167608008Y-100840000D01*
X167570685Y-100836324D01*
X167533362Y-100840000D01*
X167533352Y-100840000D01*
X167421699Y-100850997D01*
X167278438Y-100894454D01*
X167146409Y-100965026D01*
X167030684Y-101059999D01*
X167006886Y-101088997D01*
X165532155Y-102563729D01*
X165401898Y-102509774D01*
X165201939Y-102470000D01*
X165072021Y-102470000D01*
X165072021Y-98182346D01*
X165075697Y-98145021D01*
X165072021Y-98107696D01*
X165072021Y-98107688D01*
X165061024Y-97996035D01*
X165017567Y-97852774D01*
X164946995Y-97720745D01*
X164852022Y-97605020D01*
X164823024Y-97581222D01*
X163729075Y-96487274D01*
X163836277Y-96429973D01*
X163952002Y-96335000D01*
X163975804Y-96305997D01*
X164504802Y-95777000D01*
X164566939Y-95777000D01*
X164766898Y-95737226D01*
X164946168Y-95662969D01*
X166314200Y-97031002D01*
M02*
