G04 #@! TF.GenerationSoftware,KiCad,Pcbnew,5.1.5+dfsg1-2build2*
G04 #@! TF.CreationDate,2021-12-14T23:20:03+01:00*
G04 #@! TF.ProjectId,wifi-gb-cart,77696669-2d67-4622-9d63-6172742e6b69,rev?*
G04 #@! TF.SameCoordinates,Original*
G04 #@! TF.FileFunction,Profile,NP*
%FSLAX46Y46*%
G04 Gerber Fmt 4.6, Leading zero omitted, Abs format (unit mm)*
G04 Created by KiCad (PCBNEW 5.1.5+dfsg1-2build2) date 2021-12-14 23:20:03*
%MOMM*%
%LPD*%
G04 APERTURE LIST*
%ADD10C,0.150000*%
G04 APERTURE END LIST*
D10*
X140970000Y-88265000D02*
X157480000Y-88265000D01*
X157480000Y-88265000D02*
X157480000Y-80806593D01*
X157480000Y-80806593D02*
X174248760Y-80806593D01*
X140970000Y-80806593D02*
X140970000Y-88265000D01*
X127348760Y-81306593D02*
G75*
G02X127848760Y-80806593I500000J0D01*
G01*
X174248760Y-80806593D02*
G75*
G02X174748760Y-81306593I0J-500000D01*
G01*
X178248760Y-83406593D02*
G75*
G02X178748760Y-83906593I0J-500000D01*
G01*
X178748760Y-132706593D02*
G75*
G02X178248760Y-133206593I-500000J0D01*
G01*
X129348760Y-141806593D02*
G75*
G02X128448760Y-140906593I0J900000D01*
G01*
X178748760Y-132706593D02*
X178748760Y-83906593D01*
X128448760Y-140906593D02*
X128448760Y-133206593D01*
X128448760Y-133206593D02*
X127848760Y-133206593D01*
X127348760Y-132706593D02*
X127348760Y-81306593D01*
X178248760Y-83406593D02*
X174748760Y-83406593D01*
X127848760Y-80806593D02*
X140970000Y-80806593D01*
X127848760Y-133206593D02*
G75*
G02X127348760Y-132706593I0J500000D01*
G01*
X129348760Y-141806593D02*
X176748760Y-141806593D01*
X177648760Y-140906593D02*
X177648760Y-133206593D01*
X177648760Y-133206593D02*
X178248760Y-133206593D01*
X174748760Y-81306593D02*
X174748760Y-83406593D01*
X177648760Y-140906593D02*
G75*
G02X176748760Y-141806593I-900000J0D01*
G01*
M02*
